<?xml version="1.0" standalone="no"?>
<!DOCTYPE svg PUBLIC "-//W3C//DTD SVG 1.1//EN" "http://www.w3.org/Graphics/SVG/1.1/DTD/svg11.dtd" >
<svg>
<metadata>
Created by FontForge 20090914 at Sat Apr 14 11:51:02 2012
 By www-data
Copyright 1990-1992 Bitstream Inc.  All rights reserved.
</metadata>
<defs>
<font id="Swiss721BT-BoldCondensed" horiz-adv-x="1024" >
  <font-face 
    font-family="Swis721 Cn BT"
    font-weight="700"
    font-stretch="condensed"
    units-per-em="2048"
    panose-1="2 11 7 6 3 5 2 3 2 4"
    ascent="1638"
    descent="-410"
    x-height="1157"
    cap-height="1540"
    bbox="-342 -485.002 2220 1972"
    underline-thickness="162"
    underline-position="-114"
    unicode-range="U+0020-U+F002"
  />
<missing-glyph horiz-adv-x="1229" 
d="M102 -362v1806h1024v-1806h-1024zM217 -248h795v1577h-795v-1577z" />
    <glyph glyph-name=".notdef" horiz-adv-x="1229" 
d="M102 -362v1806h1024v-1806h-1024zM217 -248h795v1577h-795v-1577z" />
    <glyph glyph-name="space" unicode=" " horiz-adv-x="512" 
 />
    <glyph glyph-name="exclam" unicode="!" horiz-adv-x="598" 
d="M211 403l-51 639v498h276v-498l-53 -639h-172zM166 0v279h262v-279h-262z" />
    <glyph glyph-name="quotedbl" unicode="&#x22;" horiz-adv-x="678" 
d="M406 1438h192v-559h-192v559zM80 1438h192v-559h-192v559z" />
    <glyph glyph-name="numbersign" unicode="#" horiz-adv-x="1575" 
d="M709 848l-88 -244h251l86 244h-249zM709 1464h221l-146 -415h242l148 415h221l-148 -415h283l-74 -201h-280l-84 -242h290l-71 -200h-291l-148 -416h-221l148 416h-244l-149 -416h-220l146 416h-287l76 200h282l86 242h-299l74 201h297z" />
    <glyph glyph-name="dollar" unicode="$" 
d="M455 973l-0.999023 355.998c-38.667 -3.33301 -68.334 -19.166 -89.001 -47.499s-31 -67.166 -31 -116.499c0 -37.333 9.83301 -71.833 29.5 -103.5s50.167 -61.167 91.5 -88.5zM446.001 -201.002l-0.000976562 198.998c-123.333 7.33301 -216.166 48.333 -278.499 123
s-93.5 182.334 -93.5 323.001v39h243c0 -5.33301 -0.333008 -13.333 -1 -24s-1 -18.334 -1 -23.001c0 -70.667 11.333 -125 34 -163s58 -61.333 106 -70v454c-131.333 72 -225 144.833 -281 218.5s-84 160.167 -84 259.5c0 115.333 31.5 207.333 94.5 276
s150.167 105.667 261.5 111v137h113v-139c114.667 -1.33301 202 -33.333 262 -96s90 -153.667 90 -273v-29h-237v21c0 56.667 -10.833 101 -32.5 133s-51.834 49 -90.501 51v-409c152 -78.667 255.833 -153.667 311.5 -225s83.5 -160.333 83.5 -267
c0 -131.333 -33.167 -233.666 -99.5 -306.999s-162.166 -113.666 -287.499 -120.999v-199h-113zM551 202.996c44.667 8 78.667 27.498 102 58.498s35 72.167 35 123.5c0 50.667 -10 92.334 -30 125.001s-55.667 65.334 -107 98.001v-405z" />
    <glyph glyph-name="percent" unicode="%" horiz-adv-x="1579" 
d="M1055 356c0 -90.667 8.16699 -151.833 24.5 -183.5s46.166 -47.5 89.499 -47.5c44.667 0 75.334 15 92.001 45s25 91.333 25 184c0 86 -9 145.5 -27 178.5s-49.333 49.5 -94 49.5c-40.667 0 -69.167 -16.167 -85.5 -48.5s-24.5 -91.5 -24.5 -177.5zM852 360.001
c0 134 24.502 230.333 73.502 289s128.833 88 239.5 88c115.333 0 198.166 -29 248.499 -87s75.5 -154 75.5 -288c0 -136 -25.833 -235.167 -77.5 -297.5s-133.834 -93.5 -246.501 -93.5c-112 0 -192.167 30 -240.5 90s-72.5 159.667 -72.5 299zM291.002 1169
c0 -90.667 8.16699 -151.5 24.5 -182.5s46.5 -46.5 90.5 -46.5s74.333 15 91 45s25 91.333 25 184c0 85.333 -8.83301 144.333 -26.5 177s-49.167 49 -94.5 49c-40.667 0 -69.167 -16.167 -85.5 -48.5s-24.5 -91.5 -24.5 -177.5zM90.002 1176
c0 133.333 24.333 228.999 73 286.999s128.667 87 240 87c115.333 0 197.833 -28.667 247.5 -86s74.5 -152.666 74.5 -285.999c0 -137.333 -25.667 -237.333 -77 -300s-133 -94 -245 -94c-111.333 0 -191.333 30.167 -240 90.5s-73 160.833 -73 301.5zM360.002 -29l705 1579
h149l-706 -1579h-148z" />
    <glyph glyph-name="ampersand" unicode="&#x26;" horiz-adv-x="1348" 
d="M623 1055c37.333 30 65 60.168 83 90.501s27 62.166 27 95.499c0 36.667 -8.33301 64.667 -25 84s-41 29 -73 29c-33.333 0 -58.833 -9.16699 -76.5 -27.5s-26.5 -44.833 -26.5 -79.5c0 -8 2 -17.833 6 -29.5s9.66699 -24.167 17 -37.5zM782 285.001l-252 416.999
c-46 -31.333 -81 -68.5 -105 -111.5s-36 -89.5 -36 -139.5c0 -70 20 -129.167 60 -177.5s88.333 -72.5 145 -72.5c32.667 0 63.5 6.33301 92.5 19s60.833 34.334 95.5 65.001zM942 0l-51 97.999c-42.667 -42.667 -91 -74.167 -145 -94.5s-116.333 -30.5 -187 -30.5
c-135.333 0 -242.166 41.333 -320.499 124s-117.5 195 -117.5 337c0 91.333 21.667 172.5 65 243.5s119.333 147.5 228 229.5c-44 68.667 -75.167 127.834 -93.5 177.501s-27.5 97.834 -27.5 144.501c0 93.333 30 168.5 90 225.5s140 85.5 240 85.5
c107.333 0 190 -25.333 248 -76s87 -123 87 -217c0 -78.667 -18.5 -150.5 -55.5 -215.5s-91.5 -121.5 -163.5 -169.5l185 -317c12 33.333 21.167 70 27.5 110s9.5 84.333 9.5 133v25h235c-1.33301 -106.667 -12.833 -201.834 -34.5 -285.501s-53.834 -156.5 -96.501 -218.5
l182 -309h-305z" />
    <glyph glyph-name="quotesingle" unicode="'" horiz-adv-x="352" 
d="M80 1438h192v-559h-192v559z" />
    <glyph glyph-name="parenleft" unicode="(" horiz-adv-x="674" 
d="M446 -389c-104.667 150.667 -181.666 308.833 -230.999 474.5s-74 349.5 -74 551.5c0 170.667 25.667 336.667 77 498s125.333 308.666 222 441.999h166c-64.667 -110.667 -113.5 -249.667 -146.5 -417s-49.5 -358.666 -49.5 -573.999
c0 -210.667 16.667 -395.5 50 -554.5s84.666 -299.167 153.999 -420.5h-168z" />
    <glyph glyph-name="parenright" unicode=")" horiz-adv-x="674" 
d="M233 -389l-167 0.000976562c69.333 121.333 120.666 261.5 153.999 420.5s50 343.833 50 554.5c0 215.333 -16.5 406.666 -49.5 573.999s-81.833 306.333 -146.5 417h166c96.667 -133.333 170.667 -280.666 222 -441.999s77 -327.333 77 -498
c0 -202 -24.667 -385.833 -74 -551.5s-126.666 -323.834 -231.999 -474.501z" />
    <glyph glyph-name="asterisk" unicode="*" 
d="M512 1008l-145 -201l-150 108l143 201l-233 76l57 178l236 -78v248h184v-248l236 78l57 -178l-233 -76l143 -201l-150 -108z" />
    <glyph glyph-name="plus" unicode="+" horiz-adv-x="1706" 
d="M752 1221h202v-510h498v-199h-498v-512h-202v512h-498v199h498v510z" />
    <glyph glyph-name="comma" unicode="," horiz-adv-x="512" 
d="M127 -301l-0.000976562 104.002c42.667 4.66699 76.5 23.167 101.5 55.5s37.5 74.166 37.5 125.499v16h-139v276h258v-278c0 -84.667 -23.167 -153.834 -69.5 -207.501s-109.166 -84.167 -188.499 -91.5z" />
    <glyph glyph-name="hyphen" unicode="-" horiz-adv-x="672" 
d="M92 459v239h488v-239h-488z" />
    <glyph glyph-name="period" unicode="." horiz-adv-x="512" 
d="M127 0v276h258v-276h-258z" />
    <glyph glyph-name="slash" unicode="/" horiz-adv-x="629" 
d="M90 -190h-151l577 1767h152z" />
    <glyph glyph-name="zero" unicode="0" 
d="M649 633v416c0 121.333 -9.83301 199.666 -29.5 234.999s-55.5 53 -107.5 53s-87.833 -18 -107.5 -54s-29.5 -118.333 -29.5 -247v-147v-418c0 -122 9.66699 -200.667 29 -236s55.333 -53 108 -53c52 0 87.833 18.333 107.5 55s29.5 119.334 29.5 248.001v148zM88 772
c0 182.667 5.83105 318.5 17.498 407.5s31.167 155.833 58.5 200.5c36.667 60 82.334 103.333 137.001 130s125 40 211 40s156.333 -13.333 211 -40s100.334 -70 137.001 -130c27.333 -44.667 46.833 -111.5 58.5 -200.5s17.5 -224.833 17.5 -407.5
c0 -187.333 -5.5 -325.5 -16.5 -414.5s-29.5 -156.167 -55.5 -201.5c-37.333 -64.667 -83.833 -111.667 -139.5 -141s-126.5 -44 -212.5 -44s-157 14.667 -213 44s-102.333 76.333 -139 141c-26 44 -44.5 109.167 -55.5 195.5s-16.5 226.5 -16.5 420.5z" />
    <glyph glyph-name="one" unicode="1" 
d="M432 0l-0.000976562 1085h-340v182c126 4 224.333 29.833 295 77.5s112.334 116.167 125.001 205.5h190v-1550h-270z" />
    <glyph glyph-name="two" unicode="2" 
d="M88 0c0 5.33301 -0.332031 13.5029 -0.999023 24.5029s-1 19.167 -1 24.5c0 118.667 24.333 232.334 73 341.001s122.667 214.334 222 317.001l80 78c66.667 63.333 111 111 133 143c20 30 34.833 62.5 44.5 97.5s14.5 74.833 14.5 119.5
c0 65.333 -11.667 113.666 -35 144.999s-59.333 47 -108 47c-51.333 0 -88.833 -19.333 -112.5 -58s-35.5 -100.334 -35.5 -185.001c0 -16 0.333008 -28.333 1 -37s1 -16.334 1 -23.001h-268c0 6.66699 -0.333008 15.667 -1 27s-1 19.333 -1 24
c0 161.333 34 279.166 102 353.499s175.333 111.5 322 111.5c137.333 0 242.333 -33.667 315 -101s109 -164.666 109 -291.999c0 -59.333 -6.5 -114 -19.5 -164s-33.167 -97.667 -60.5 -143c-21.333 -36 -69 -91.667 -143 -167
c-38.667 -38.667 -68.334 -69.334 -89.001 -92.001l-1 -1c-146.667 -162.667 -230 -277.334 -250 -344.001h545v-246h-836z" />
    <glyph glyph-name="three" unicode="3" 
d="M84 518l268.001 -0.00390625v-18c0 -115.333 11.667 -195.833 35 -241.5s63.666 -68.5 120.999 -68.5c56.667 0 96.5 20.167 119.5 60.5s34.5 112.5 34.5 216.5c0 104.667 -14.167 173.5 -42.5 206.5s-83.166 49.5 -164.499 49.5c-18 0 -32.833 -0.166992 -44.5 -0.5
s-23.5 -0.833008 -35.5 -1.5v201h20c91.333 0 154.166 15.333 188.499 46s51.5 87.667 51.5 171c0 76.667 -10.167 129.834 -30.5 159.501s-55.166 44.5 -104.499 44.5c-48 0 -82.5 -16.5 -103.5 -49.5s-31.5 -87.5 -31.5 -163.5v-36h-267
c-0.666992 6.66699 -1.16699 13.834 -1.5 21.501s-0.5 19.5 -0.5 35.5c0 132.667 34.833 232.334 104.5 299.001s173.5 100 311.5 100c127.333 0 225.666 -34.5 294.999 -103.5s104 -166.833 104 -293.5c0 -86 -15.167 -156.5 -45.5 -211.5s-74.5 -91.833 -132.5 -110.5
c72 -18 125.5 -56.833 160.5 -116.5s52.5 -142.167 52.5 -247.5c0 -166.667 -36.833 -291 -110.5 -373s-185.5 -123 -335.5 -123c-142.667 0 -248 39.667 -316 119s-102 201.666 -102 366.999c0 6.66699 0.333008 16.834 1 30.501s1 23.834 1 30.501z" />
    <glyph glyph-name="four" unicode="4" 
d="M276 528h287v627zM557 0v305h-487v246l456 971h293v-987h129v-230h-129v-305h-262z" />
    <glyph glyph-name="five" unicode="5" 
d="M80 494l266.001 0.00195312v-41c0 -90.667 13 -158.834 39 -204.501s65 -68.5 117 -68.5c53.333 0 91.833 27 115.5 81s35.5 141.667 35.5 263c0 110.667 -13.333 191 -40 241s-69.334 75 -128.001 75c-39.333 0 -71.833 -11.5 -97.5 -34.5s-40.167 -53.167 -43.5 -90.5
h-250l41 807h729v-246h-516l-16 -309c28.667 30 59.667 51.833 93 65.5s72.666 20.5 117.999 20.5c130 0 227.667 -42.5 293 -127.5s98 -212.5 98 -382.5c0 -200 -35 -345.667 -105 -437s-181.667 -137 -335 -137c-141.333 0 -245.666 39.667 -312.999 119
s-101 201.666 -101 366.999v39z" />
    <glyph glyph-name="six" unicode="6" 
d="M371 506c0 -118.667 10.667 -200.499 32 -245.499s58.333 -67.5 111 -67.5s89 19.667 109 59s30 122.666 30 249.999c0 128 -10 211.5 -30 250.5s-57 58.5 -111 58.5c-52 0 -88.5 -22.167 -109.5 -66.5s-31.5 -123.833 -31.5 -238.5zM371 936.001
c22 34.667 51.166 60.665 87.499 77.998s79.5 26 129.5 26c118 0 205.5 -39.667 262.5 -119s85.5 -202 85.5 -368c0 -211.333 -32.667 -361.166 -98 -449.499s-174.666 -132.5 -327.999 -132.5c-82.667 0 -151 13.667 -205 41s-99.667 71 -137 131
c-28 46 -48 114.833 -60 206.5s-18 226.5 -18 404.5s5.83301 313.167 17.5 405.5s30.5 161.166 56.5 206.499c36.667 64 84.5 110.667 143.5 140s133.833 44 224.5 44c119.333 0 211.333 -28.333 276 -85s97 -136.667 97 -240v-23h-266v15
c0 42.667 -9.83301 74.334 -29.5 95.001s-50.167 31 -91.5 31c-54 0 -92.333 -23.667 -115 -71s-34 -130 -34 -248c0 -9.33301 0.333008 -23.666 1 -42.999s1 -34.333 1 -45z" />
    <glyph glyph-name="seven" unicode="7" 
d="M272 0c14.667 191.333 54.833 393.5 120.5 606.5s155.5 433.5 269.5 661.5h-578v254h852v-222c-104.667 -194 -188 -400 -250 -618s-101.667 -445.333 -119 -682h-295z" />
    <glyph glyph-name="eight" unicode="8" 
d="M387 1139c0 -76 9.5 -129.166 28.5 -159.499s51.167 -45.5 96.5 -45.5s77.833 15.667 97.5 47s29.5 84 29.5 158c0 75.333 -10 128.166 -30 158.499s-53.667 45.5 -101 45.5c-43.333 0 -74.333 -15.5 -93 -46.5s-28 -83.5 -28 -157.5zM512 731.001
c-52.667 0 -89 -19.501 -109 -58.501s-30 -117.167 -30 -234.5c0 -94 10.333 -158.333 31 -193s56.667 -52 108 -52c53.333 0 90.166 18.333 110.499 55s30.5 107.667 30.5 213c0 100.667 -10.667 170.834 -32 210.501s-57.666 59.5 -108.999 59.5zM317 834
c-64 19.333 -112.333 56.998 -145 112.998s-49 129.333 -49 220c0 124.667 33.333 219.334 100 284.001s163.667 97 291 97s224.333 -33.167 291 -99.5s100 -162.833 100 -289.5c0 -88 -16.667 -158.833 -50 -212.5s-84.333 -91.167 -153 -112.5
c81.333 -16 140.333 -54.333 177 -115s55 -150 55 -268c0 -164.667 -34.167 -285.5 -102.5 -362.5s-175.5 -115.5 -321.5 -115.5c-143.333 0 -248.833 37 -316.5 111s-101.5 189.333 -101.5 346c0 122.667 18 215.834 54 279.501s93 105.167 171 124.5z" />
    <glyph glyph-name="nine" unicode="9" 
d="M651 586c-22 -35.333 -51.002 -61.332 -87.002 -77.999s-80.667 -25 -134 -25c-118 0 -205.167 39.667 -261.5 119s-84.5 201.666 -84.5 366.999c0 210 31.667 359.333 95 448s169 133 317 133c88.667 0 161 -13.5 217 -40.5s102.333 -70.833 139 -131.5
c28 -44.667 48 -112.834 60 -204.501s18 -226.834 18 -405.501c0 -183.333 -5.5 -320.166 -16.5 -410.499s-29.5 -157.5 -55.5 -201.5c-36.667 -63.333 -83.667 -110 -141 -140s-127.666 -45 -210.999 -45c-130 0 -227.667 28.333 -293 85s-98 141 -98 253v10h268v-16
c0 -39.333 10.5 -69.666 31.5 -90.999s50.833 -32 89.5 -32c54.667 0 92.834 23 114.501 69s32.5 131.667 32.5 257v80zM648.998 1020c0 120.667 -10.333 202.334 -31 245.001s-57.334 64 -110.001 64s-89 -19.667 -109 -59s-30 -122.666 -30 -249.999
c0 -130.667 9.83301 -214.834 29.5 -252.501s56.834 -56.5 111.501 -56.5c52 0 88.167 21.167 108.5 63.5s30.5 124.166 30.5 245.499z" />
    <glyph glyph-name="colon" unicode=":" horiz-adv-x="559" 
d="M152 862v277h256v-277h-256zM152 0v276h256v-276h-256z" />
    <glyph glyph-name="semicolon" unicode=";" horiz-adv-x="559" 
d="M152 -301v104c42 4.66699 75.333 23 100 55s37 74 37 126v16h-137v276h256v-294c0 -74 -24.833 -138.667 -74.5 -194s-110.167 -85 -181.5 -89zM152 862v277h256v-277h-256z" />
    <glyph glyph-name="less" unicode="&#x3c;" horiz-adv-x="1706" 
d="M1442 1194v-219l-893 -365l893 -364v-219l-1178 485v199z" />
    <glyph glyph-name="equal" unicode="=" horiz-adv-x="1706" 
d="M254 496h1198v-199h-1198v199zM254 926h1198v-199h-1198v199z" />
    <glyph glyph-name="greater" unicode="&#x3e;" horiz-adv-x="1706" 
d="M264 1194l1178 -483v-199l-1178 -485v219l895 364l-895 365v219z" />
    <glyph glyph-name="question" unicode="?" horiz-adv-x="1006" 
d="M358 1126l-249 0.00195312v39c0 132.667 33.833 234.5 101.5 305.5s164.834 106.5 291.501 106.5c122.667 0 219.167 -34.833 289.5 -104.5s105.5 -165.167 105.5 -286.5c0 -46.667 -5.16699 -89.834 -15.5 -129.501s-25.5 -75.834 -45.5 -108.501
c-24.667 -40 -62.334 -89.333 -113.001 -148s-84 -99.334 -100 -122.001c-24 -32 -41.667 -66.333 -53 -103s-17 -78 -17 -124c0 -4.66699 0.333008 -11 1 -19s1 -14 1 -18h-241c-1.33301 8.66699 -2.16602 18 -2.49902 28s-0.5 24.333 -0.5 43
c0 72 8.83301 134.5 26.5 187.5s48.5 107.5 92.5 163.5c11.333 14.667 28.666 35.334 51.999 62.001c89.333 103.333 134 203.333 134 300c0 53.333 -10.667 94 -32 122s-52 42 -92 42c-45.333 0 -79 -16.333 -101 -49s-33 -82.667 -33 -150v-37zM565 266.002v-266h-256v266
h256z" />
    <glyph glyph-name="at" unicode="@" horiz-adv-x="2048" 
d="M1167 272c-36.667 -56 -79 -97.1602 -127 -123.493s-104.667 -39.5 -170 -39.5c-105.333 0 -185.5 28.667 -240.5 86s-82.5 142 -82.5 254c0 159.333 46.5 293 139.5 401s207.5 162 343.5 162c53.333 0 99.666 -11 138.999 -33s71.666 -54.667 96.999 -98l53 98h178
l-147 -598c-2 -7.33301 -3.66699 -14.833 -5 -22.5s-2 -13.834 -2 -18.501c0 -23.333 8 -40.833 24 -52.5s39.667 -17.5 71 -17.5c26 0 53.167 6.66699 81.5 20s54.833 32 79.5 56c57.333 53.333 100.833 115.666 130.5 186.999s44.5 149.666 44.5 234.999
c0 160 -61.833 291.5 -185.5 394.5s-283.167 154.5 -478.5 154.5c-94 0 -181.5 -11.333 -262.5 -34s-154.5 -56.334 -220.5 -101.001c-113.333 -76 -200.5 -171 -261.5 -285s-91.5 -239 -91.5 -375c0 -204.667 69 -368.167 207 -490.5s322.333 -183.5 553 -183.5
c108 0 213.5 16.333 316.5 49s198.833 80 287.5 142l82 -117c-102 -76.667 -210.167 -134.334 -324.5 -173.001s-233.5 -58 -357.5 -58c-128 0 -245.667 16.167 -353 48.5s-202.666 80.166 -285.999 143.499c-103.333 80.667 -180.666 173.667 -231.999 279
s-77 224.666 -77 357.999c0 111.333 17.5 217.5 52.5 318.5s86.5 192.833 154.5 275.5c98.667 120.667 217.334 212 356.001 274s293 93 463 93c112.667 0 218.5 -15.167 317.5 -45.5s185.167 -73.166 258.5 -128.499c90 -70 157.167 -149.833 201.5 -239.5
s66.5 -190.834 66.5 -303.501c0 -110 -21.833 -211.5 -65.5 -304.5s-106.5 -172.5 -188.5 -238.5c-46.667 -37.333 -97.5 -65.833 -152.5 -85.5s-112.167 -29.5 -171.5 -29.5c-70.667 0 -123.834 14 -159.501 42s-54.167 69.333 -55.5 124zM1217 700.007
c-8.66699 54 -27.833 95.167 -57.5 123.5s-68.834 42.5 -117.501 42.5c-76 0 -142 -41.333 -198 -124s-84 -182 -84 -298c0 -61.333 13.5 -108 40.5 -140s66.167 -48 117.5 -48c55.333 0 105.833 21 151.5 63s76.834 96.667 93.501 164z" />
    <glyph glyph-name="A" unicode="A" horiz-adv-x="1120" 
d="M430 618h244l-123 646zM18 0l347 1540h385l350 -1540h-309l-76 387h-330l-74 -387h-293z" />
    <glyph glyph-name="B" unicode="B" horiz-adv-x="1116" 
d="M410 219l118 0.000976562c74 0 126 18.167 156 54.5s45 99.5 45 189.5c0 93.333 -16.333 157.666 -49 192.999s-94 53 -184 53h-86v-490zM410 915.001h96.001c72 0 121.667 15.667 149 47s41 89 41 173c0 75.333 -13.833 126.833 -41.5 154.5s-79.834 41.5 -156.501 41.5
h-88v-416zM131.001 0.000976562v1540h461c132 0 230.167 -30.667 294.5 -92s96.5 -155.666 96.5 -282.999c0 -102 -15.833 -181 -47.5 -237s-79.167 -89.667 -142.5 -101c72 -10 128.167 -45.833 168.5 -107.5s60.5 -143.167 60.5 -244.5
c0 -163.333 -34.167 -283.333 -102.5 -360s-174.833 -115 -319.5 -115h-469z" />
    <glyph glyph-name="C" unicode="C" horiz-adv-x="1122" 
d="M743 549h279.001c0 -6.66699 0.333008 -16.5 1 -29.5s1 -23.167 1 -30.5c0 -178 -37.5 -310.167 -112.5 -396.5s-189.833 -129.5 -344.5 -129.5c-73.333 0 -136.333 9.5 -189 28.5s-98 48.5 -136 88.5c-52 53.333 -88.667 126.666 -110 219.999s-32 256 -32 488
c0 158.667 6.33301 284.834 19 378.501s32.334 163.5 59.001 209.5c41.333 70.667 92.666 121.834 153.999 153.501s139.666 47.5 234.999 47.5c156 0 269.5 -40.667 340.5 -122s106.833 -212 107.5 -392h-278v37c0 83.333 -13.5 145.5 -40.5 186.5
s-68.167 61.5 -123.5 61.5c-68.667 0 -115.5 -28.333 -140.5 -85s-37.5 -213.334 -37.5 -470.001c0 -277.333 12.167 -446 36.5 -506s70.833 -90 139.5 -90c64 0 108.667 23.5 134 70.5s38 133.833 38 260.5v21z" />
    <glyph glyph-name="D" unicode="D" horiz-adv-x="1204" 
d="M412 227h127c64.667 0 110 4.66699 136 14s46.667 25.333 62 48c26.667 40 45.667 94.833 57 164.5s17 181.167 17 334.5c0 149.333 -6.66699 258 -20 326s-36 119.333 -68 154c-16.667 17.333 -38.167 29.5 -64.5 36.5s-67.5 10.5 -123.5 10.5h-123v-1088zM131 0v1540
h461c94 0 168.833 -8 224.5 -24s101.5 -42 137.5 -78c54 -52.667 92.167 -119.167 114.5 -199.5s33.5 -205.166 33.5 -374.499c0 -218.667 -7.66699 -373.167 -23 -463.5s-41.333 -167.166 -78 -230.499c-35.333 -63.333 -84.5 -107.5 -147.5 -132.5
s-172.167 -37.5 -327.5 -37.5h-395z" />
    <glyph glyph-name="E" unicode="E" horiz-adv-x="1014" 
d="M131 0v1540h791v-256h-506v-356h471v-244h-471v-424h518v-260h-803z" />
    <glyph glyph-name="F" unicode="F" horiz-adv-x="1001" 
d="M131 0v1540h805v-252h-518v-364h489v-246h-489v-678h-287z" />
    <glyph glyph-name="G" unicode="G" horiz-adv-x="1206" 
d="M891 0l-20.999 170c-29.333 -74 -69.5 -127 -120.5 -159s-121.167 -48 -210.5 -48c-161.333 0 -274.833 61 -340.5 183s-98.5 345.667 -98.5 671c0 152 7.83301 273.833 23.5 365.5s40.167 162.5 73.5 212.5c40 61.333 93 106.666 159 135.999s148 44 246 44
c165.333 0 287.166 -39 365.499 -117s117.5 -199.333 117.5 -364v-39h-268v16c0 92 -17.167 161.5 -51.5 208.5s-85.5 70.5 -153.5 70.5c-83.333 0 -140.333 -32 -171 -96s-46 -233.667 -46 -509c0 -217.333 14.667 -362.666 44 -435.999s82.333 -110 159 -110
c76 0 130.167 26 162.5 78s48.5 140 48.5 264v53h-199v246h475v-840h-194z" />
    <glyph glyph-name="H" unicode="H" horiz-adv-x="1225" 
d="M131 0v1540h285v-604h393v604h285v-1540h-285v698h-393v-698h-285z" />
    <glyph glyph-name="I" unicode="I" horiz-adv-x="549" 
d="M131 0v1540h287v-1540h-287z" />
    <glyph glyph-name="J" unicode="J" horiz-adv-x="903" 
d="M25 487h261.998v-182c0 -40.667 8.16699 -71 24.5 -91s41.5 -30 75.5 -30c36.667 0 61.834 11.5 75.501 34.5s20.5 76.5 20.5 160.5v70v1091h281v-1083c0 -107.333 -2.16699 -180.333 -6.5 -219s-11.833 -69.667 -22.5 -93c-28.667 -61.333 -71.667 -107 -129 -137
s-131 -45 -221 -45c-119.333 0 -209.166 30.833 -269.499 92.5s-90.5 153.167 -90.5 274.5v157z" />
    <glyph glyph-name="K" unicode="K" horiz-adv-x="1118" 
d="M131 0v1540h281v-643l350 643h319l-389 -639l414 -901h-315l-277 637l-102 -170v-467h-281z" />
    <glyph glyph-name="L" unicode="L" horiz-adv-x="999" 
d="M131 0v1540h287v-1278h518v-262h-805z" />
    <glyph glyph-name="M" unicode="M" horiz-adv-x="1548" 
d="M131 0v1540h432l211 -997l211 997h432v-1540h-274l6 1366l-287 -1366h-176l-287 1366l7 -1366h-275z" />
    <glyph glyph-name="N" unicode="N" horiz-adv-x="1221" 
d="M131 0v1540h295l401 -1077l-8 1077h271v-1540h-293l-404 1079l8 -1079h-270z" />
    <glyph glyph-name="O" unicode="O" horiz-adv-x="1202" 
d="M393 770c0 -253.333 14.8311 -412.833 44.498 -478.5s84.5 -98.5 164.5 -98.5c78.667 0 132.5 32.167 161.5 96.5s43.5 224.5 43.5 480.5s-14.667 416.667 -44 482s-83.666 98 -162.999 98s-133.666 -32.667 -162.999 -98s-44 -226 -44 -482zM99.998 770
c0 163.333 7.66699 293.834 23 391.501s39.333 171.167 72 220.5c44.667 70 98 120 160 150s143.667 45 245 45s183 -15 245 -45s115.667 -80 161 -150c32.667 -50.667 56.5 -124.667 71.5 -222s22.5 -227.333 22.5 -390c0 -162 -7.66699 -291.833 -23 -389.5
s-39 -171.834 -71 -222.501c-45.333 -70 -99 -120 -161 -150s-143.667 -45 -245 -45s-183 15 -245 45s-115.333 80 -160 150c-32.667 49.333 -56.667 122.833 -72 220.5s-23 228.167 -23 391.5z" />
    <glyph glyph-name="P" unicode="P" horiz-adv-x="1116" 
d="M408 866h120c89.333 0 152 17.5 188 52.5s54 94.833 54 179.5c0 85.333 -16.5 144.5 -49.5 177.5s-95.833 49.5 -188.5 49.5h-124v-459zM131 0v1540h498c152 0 261.333 -34 328 -102s100 -179.333 100 -334c0 -152 -35.5 -265.167 -106.5 -339.5
s-179.5 -111.5 -325.5 -111.5h-209v-653h-285z" />
    <glyph glyph-name="Q" unicode="Q" horiz-adv-x="1202" 
d="M668 203l-84.002 86l143 145l61 -63c7.33301 50 12.666 103.333 15.999 160s5 118 5 184c0 286 -14.667 463.333 -44 532s-84.333 103 -165 103c-79.333 0 -133.666 -32.667 -162.999 -98s-44 -226 -44 -482c0 -249.333 13.833 -407.833 41.5 -475.5
s78.834 -101.5 153.501 -101.5c8.66699 0 18.834 0.666992 30.501 2s28.167 4 49.5 8zM855.998 14c-34.667 -17.333 -72.832 -30.167 -114.499 -38.5s-88.834 -12.5 -141.501 -12.5c-101.333 0 -183 15 -245 45s-115.333 80 -160 150
c-32.667 50.667 -56.667 124.834 -72 222.501s-23 227.5 -23 389.5c0 162.667 7.66699 292.667 23 390s39.333 171.333 72 222c44.667 70 98 120 160 150s143.667 45 245 45s183 -15 245 -45s115.667 -80 161 -150c32 -50.667 55.667 -124.834 71 -222.501
s23 -227.5 23 -389.5c0 -169.333 -7.66699 -303.5 -23 -402.5s-39 -168.833 -71 -209.5l172 -172l-146 -148z" />
    <glyph glyph-name="R" unicode="R" horiz-adv-x="1182" 
d="M408 889l165 -0.000976562c83.333 0 141.166 16.667 173.499 50s48.5 93 48.5 179c0 76.667 -17.667 130.334 -53 161.001s-99.666 46 -192.999 46h-141v-436zM131 -0.000976562l0.000976562 1540h514c155.333 0 267.166 -31.5 335.499 -94.5
s102.5 -165.833 102.5 -308.5c0 -100 -18.333 -178.833 -55 -236.5s-90.667 -91.5 -162 -101.5c136 -36 207 -151 213 -345v-20l8 -204c2.66699 -58 10 -104.5 22 -139.5s30.667 -65.167 56 -90.5h-340c-8 26 -14 56.5 -18 91.5s-6.66699 84.5 -8 148.5l-4 161v41
c0 89.333 -19 150.666 -57 183.999s-115.333 50 -232 50h-98v-676h-277z" />
    <glyph glyph-name="S" unicode="S" horiz-adv-x="1122" 
d="M102 541l286.999 0.00292969v-99c0 -94.667 11.833 -159.167 35.5 -193.5s64.5 -51.5 122.5 -51.5c60.667 0 106.834 15.333 138.501 46s47.5 76 47.5 136c0 46 -11 85.5 -33 118.5s-69.667 75.5 -143 127.5l-147 104c-126.667 88 -207.167 160.667 -241.5 218
s-51.5 129.333 -51.5 216c0 129.333 38.333 230.666 115 303.999s182.334 110 317.001 110c142.667 0 252 -39 328 -117s114 -190 114 -336c0 -14.667 -0.166992 -26 -0.5 -34s-0.833008 -15 -1.5 -21h-272v41c0 83.333 -13.667 143 -41 179s-72.333 54 -135 54
c-46 0 -82.167 -13.5 -108.5 -40.5s-39.5 -64.5 -39.5 -112.5c0 -64.667 59 -136.334 177 -215.001c1.33301 -0.666992 2.33301 -1.33398 3 -2.00098l158 -107c112.667 -74.667 189 -145.167 229 -211.5s60 -150.833 60 -253.5c0 -140 -40 -248 -120 -324
s-194.333 -114 -343 -114c-154.667 0 -269.834 40 -345.501 120s-113.5 202 -113.5 366c0 17.333 1.33301 46 4 86v6z" />
    <glyph glyph-name="T" unicode="T" horiz-adv-x="987" 
d="M350 0v1286h-330v254h947v-254h-330v-1286h-287z" />
    <glyph glyph-name="U" unicode="U" horiz-adv-x="1223" 
d="M131 1540l287.001 -0.000976562v-1038c0 -118.667 14.5 -199.167 43.5 -241.5s80.5 -63.5 154.5 -63.5c73.333 0 124.166 21.333 152.499 64s42.5 124.334 42.5 245.001v1034h283v-1063c0 -103.333 -5.83301 -178.833 -17.5 -226.5s-31.167 -89.5 -58.5 -125.5
c-41.333 -54 -96 -94.5 -164 -121.5s-148.667 -40.5 -242 -40.5c-176 0 -300.167 38.167 -372.5 114.5s-108.5 209.5 -108.5 399.5v1063z" />
    <glyph glyph-name="V" unicode="V" horiz-adv-x="1120" 
d="M373 0l-346 1540h307l229 -1229l207 1229h303l-323 -1540h-377z" />
    <glyph glyph-name="W" unicode="W" horiz-adv-x="1677" 
d="M336 0l-299 1540h297l188 -1167l201 1167h238l221 -1190l164 1190h294l-280 -1540h-340l-178 973l-164 -973h-342z" />
    <glyph glyph-name="X" unicode="X" horiz-adv-x="1122" 
d="M18 0l377 786l-358 754h323l205 -485l209 485h320l-371 -754l381 -786h-324l-223 514l-227 -514h-312z" />
    <glyph glyph-name="Y" unicode="Y" horiz-adv-x="1126" 
d="M422 0v653l-404 887h318l233 -579l230 579h309l-397 -887v-653h-289z" />
    <glyph glyph-name="Z" unicode="Z" horiz-adv-x="991" 
d="M61 0v260l541 1040h-514v240h819v-237l-534 -1043h557v-260h-869z" />
    <glyph glyph-name="bracketleft" unicode="[" horiz-adv-x="672" 
d="M160 -418v1958h411v-170h-159v-1618h159v-170h-411z" />
    <glyph glyph-name="backslash" unicode="\" horiz-adv-x="629" 
d="M516 -190l-577 1767h151l578 -1767h-152z" />
    <glyph glyph-name="bracketright" unicode="]" horiz-adv-x="672" 
d="M489 1540v-1958h-411v170h162v1618h-162v170h411z" />
    <glyph glyph-name="asciicircum" unicode="^" horiz-adv-x="2048" 
d="M897 1460h252l481 -561h-235l-371 371l-373 -371h-235z" />
    <glyph glyph-name="underscore" unicode="_" 
d="M0 -279h1024v-204h-1024v204z" />
    <glyph glyph-name="grave" unicode="`" 
d="M653 1280h-125l-305 285h256z" />
    <glyph glyph-name="a" unicode="a" horiz-adv-x="993" 
d="M627 606c-100.667 -50.667 -168.833 -96.001 -204.5 -136.001s-53.5 -87.333 -53.5 -142c0 -51.333 9.5 -89.166 28.5 -113.499s48.833 -36.5 89.5 -36.5c46.667 0 81.667 20.333 105 61s35 101.667 35 183v184zM664.001 -0.000976562
c-6 8.66699 -11.1699 21.6689 -15.5029 39.002s-8.83301 41.666 -13.5 72.999c-28 -46.667 -64.167 -82.167 -108.5 -106.5s-96.166 -36.5 -155.499 -36.5c-88 0 -156.5 29.667 -205.5 89s-73.5 141.666 -73.5 246.999c0 95.333 21.5 171.166 64.5 227.499
s128.167 112.833 255.5 169.5c12.667 6 30.667 14 54 24c104.667 44.667 157 97 157 157c0 36.667 -10.167 64.834 -30.5 84.501s-49.833 29.5 -88.5 29.5c-48.667 0 -84.5 -13 -107.5 -39s-34.5 -66.667 -34.5 -122v-23h-260c0 130 31.833 224.667 95.5 284
s165.834 89 306.501 89s239.334 -27.167 296.001 -81.5s85 -149.5 85 -285.5v-653c0 -32 3 -61.167 9 -87.5s16 -52.5 30 -78.5h-260z" />
    <glyph glyph-name="b" unicode="b" horiz-adv-x="995" 
d="M516 963c-53.333 0 -89.833 -25.333 -109.5 -76s-29.5 -169.667 -29.5 -357c0 -144 9.83301 -236.667 29.5 -278s56.167 -62 109.5 -62c47.333 0 79.666 22.667 96.999 68s26 151 26 317c0 171.333 -8.66699 278.833 -26 322.5s-49.666 65.5 -96.999 65.5zM117 0v1540
h268v-481c22.667 43.333 52.5 75.666 89.5 96.999s82.833 32 137.5 32c110.667 0 188.167 -44.167 232.5 -132.5s66.5 -249.166 66.5 -482.499c0 -225.333 -22.833 -382.333 -68.5 -471s-124.5 -133 -236.5 -133c-56 0 -103.833 12.833 -143.5 38.5
s-70.167 63.5 -91.5 113.5v-121h-254z" />
    <glyph glyph-name="c" unicode="c" horiz-adv-x="930" 
d="M846 454c0.666992 -8 1.16602 -16.502 1.49902 -25.502s0.5 -22.167 0.5 -39.5c0 -143.333 -30.5 -249.166 -91.5 -317.499s-155.5 -102.5 -283.5 -102.5c-145.333 0 -246.833 43 -304.5 129s-86.5 246 -86.5 480c0 233.333 28.833 393.333 86.5 480
s159.167 130 304.5 130c127.333 0 221.333 -31.667 282 -95s91 -161.333 91 -294v-41h-256v26c0 70 -9 120.333 -27 151s-47.333 46 -88 46c-41.333 0 -71.166 -15 -89.499 -45s-27.5 -80 -27.5 -150v-399c0 -79.333 8.66699 -134.666 26 -165.999s47 -47 89 -47
c45.333 0 76.833 18 94.5 54s26.5 103.333 26.5 202v25z" />
    <glyph glyph-name="d" unicode="d" horiz-adv-x="995" 
d="M356 596c0 -178.667 8.66895 -291.001 26.002 -337.001s49.666 -69 96.999 -69c53.333 0 89.833 20.5 109.5 61.5s29.5 125.167 29.5 252.5c0 204.667 -9.83301 332.334 -29.5 383.001s-56.167 76 -109.5 76c-46.667 0 -78.834 -21.833 -96.501 -65.5
s-26.5 -144.167 -26.5 -301.5zM625.002 120.999c-22 -50 -52.667 -87.833 -92 -113.5s-87.333 -38.5 -144 -38.5c-111.333 0 -190 44.333 -236 133s-69 245.667 -69 471c0 233.333 22.333 394.166 67 482.499s122 132.5 232 132.5c54.667 0 100.667 -10.667 138 -32
s67 -53.666 89 -96.999v481h269v-1540h-254v121z" />
    <glyph glyph-name="e" unicode="e" horiz-adv-x="975" 
d="M358 725h260v49c0 79.333 -9.66699 134 -29 164s-53.333 45 -102 45c-47.333 0 -81 -15.5 -101 -46.5s-30 -85.167 -30 -162.5l1 -16.5c0.666992 -11 1 -21.833 1 -32.5zM627 397l251.999 -0.000976562c0 -5.33301 0.333008 -13 1 -23s1 -17.333 1 -22
c0 -132 -31.5 -228.833 -94.5 -290.5s-162.833 -92.5 -299.5 -92.5c-72 0 -132.333 9 -181 27s-88.667 46 -120 84c-37.333 44.667 -63.666 101 -78.999 169s-23 190.333 -23 367c0 140.667 6.66699 241.334 20 302.001s36 110.334 68 149.001
c33.333 40 76.833 70.167 130.5 90.5s117.5 30.5 191.5 30.5c71.333 0 132.833 -10.833 184.5 -32.5s94.5 -54.5 128.5 -98.5c28.667 -38.667 49.167 -87.167 61.5 -145.5s18.5 -152.5 18.5 -282.5v-88h-526c-1.33301 -8.66699 -2.16602 -17.834 -2.49902 -27.501
s-0.5 -25.167 -0.5 -46.5c0 -110 10.167 -187 30.5 -231s54.833 -66 103.5 -66c47.333 0 81.666 17.833 102.999 53.5s32 93.5 32 173.5z" />
    <glyph glyph-name="f" unicode="f" horiz-adv-x="563" 
d="M141 0l0.000976562 958h-104v199h104v115c0 99.333 19 169.833 57 211.5s101.667 62.5 191 62.5c18 0 37.667 -0.5 59 -1.5s44.666 -2.5 69.999 -4.5v-201c-3.33301 0 -8 0.333008 -14 1s-10 1 -12 1c-29.333 0 -50.333 -6 -63 -18s-19 -31.667 -19 -59v-107h108v-199
h-108v-958h-269z" />
    <glyph glyph-name="g" unicode="g" horiz-adv-x="995" 
d="M879 92c0 -102 -4.83203 -176.499 -14.499 -223.499s-26.167 -87.167 -49.5 -120.5c-30 -44.667 -74.833 -78.667 -134.5 -102s-131.5 -35 -215.5 -35c-114.667 0 -202.334 22.333 -263.001 67s-91.667 109.667 -93 195h265c2 -22.667 11.5 -40.334 28.5 -53.001
s40.5 -19 70.5 -19c50.667 0 86.167 15.5 106.5 46.5s30.5 87.833 30.5 170.5v80c-22.667 -43.333 -52.167 -75.666 -88.5 -96.999s-79.833 -32 -130.5 -32c-114 0 -193.667 43.167 -239 129.5s-68 248.166 -68 485.499c0 225.333 23 382.333 69 471s124.667 133 236 133
c56.667 0 104.667 -12.667 144 -38s70 -63.333 92 -114v121h254v-1065zM479.001 967.001c-47.333 0 -79.668 -23.168 -97.001 -69.501s-26 -159.166 -26 -338.499c0 -156.667 8.83301 -256.5 26.5 -299.5s49.834 -64.5 96.501 -64.5c53.333 0 89.833 25.167 109.5 75.5
s29.5 177.833 29.5 382.5c0 128 -9.83301 212.333 -29.5 253s-56.167 61 -109.5 61z" />
    <glyph glyph-name="h" unicode="h" horiz-adv-x="993" 
d="M117 0l0.00292969 1540h266v-493c23.333 44.667 55.666 79.334 96.999 104.001s88.333 37 141 37c84 0 148.333 -24 193 -72s67 -117 67 -207v-909h-258v776c0 72.667 -7.83301 121.167 -23.5 145.5s-42.834 36.5 -81.501 36.5c-48.667 0 -83.334 -16.167 -104.001 -48.5
s-31 -89.833 -31 -172.5v-737h-266z" />
    <glyph glyph-name="i" unicode="i" horiz-adv-x="496" 
d="M115 1300v240h266v-240h-266zM115 0v1157h266v-1157h-266z" />
    <glyph glyph-name="j" unicode="j" horiz-adv-x="514" 
d="M133 1300v240h264v-240h-264zM37 -385v219.001c42 0 68.833 6.16699 80.5 18.5s17.5 47.166 17.5 104.499v1200h262v-1204c0 -151.333 -18 -246.5 -54 -285.5s-108.667 -58.5 -218 -58.5c-13.333 0 -27.333 0.5 -42 1.5s-30 2.5 -46 4.5z" />
    <glyph glyph-name="k" unicode="k" horiz-adv-x="885" 
d="M117 0v1540h260v-805l239 422h281l-289 -442l293 -715h-291l-168 463l-65 -103v-360h-260z" />
    <glyph glyph-name="l" unicode="l" horiz-adv-x="496" 
d="M115 0v1540h266v-1540h-266z" />
    <glyph glyph-name="m" unicode="m" horiz-adv-x="1538" 
d="M119 0l0.00292969 1157h248v-133c30.667 60.667 67 103.167 109 127.5s99 36.5 171 36.5c56.667 0 106 -12.833 148 -38.5s72 -61.5 90 -107.5c35.333 52 73.666 89.333 114.999 112s91.666 34 150.999 34c91.333 0 160.166 -25.167 206.499 -75.5
s69.5 -124.833 69.5 -223.5v-889h-262v739c0 91.333 -9.33301 150.333 -28 177s-53 40 -103 40c-46.667 0 -79.834 -15.167 -99.501 -45.5s-29.5 -85.5 -29.5 -165.5v-745h-264v752c0 78.667 -9.16699 132.334 -27.5 161.001s-50.166 43 -95.499 43
c-48 0 -82.5 -15.333 -103.5 -46s-31.5 -82 -31.5 -154v-756h-264z" />
    <glyph glyph-name="n" unicode="n" horiz-adv-x="993" 
d="M117 0v1157h262v-117c28 48.667 62.333 85.5 103 110.5s87 37.5 139 37.5c84 0 148.333 -24 193 -72s67 -117 67 -207v-909h-258v776c0 68 -8.66699 115.833 -26 143.5s-46.333 41.5 -87 41.5c-44.667 0 -76.667 -17 -96 -51s-29 -91.667 -29 -173v-737h-268z" />
    <glyph glyph-name="o" unicode="o" horiz-adv-x="979" 
d="M356 590v-27c0 -179.333 9 -289 27 -329s52.667 -60 104 -60c53.333 0 89.333 18.833 108 56.5s28 135.5 28 293.5v47v66c0 151.333 -9.5 246.5 -28.5 285.5s-54.167 58.5 -105.5 58.5c-50.667 0 -85.5 -17.833 -104.5 -53.5s-28.5 -121.5 -28.5 -257.5v-80zM82 578
c0 233.333 30 393.333 90 480s165.667 130 317 130c152 0 258 -43.333 318 -130s90 -246.667 90 -480s-30 -393.166 -90 -479.499s-166 -129.5 -318 -129.5c-151.333 0 -257 43.167 -317 129.5s-90 246.166 -90 479.499z" />
    <glyph glyph-name="p" unicode="p" horiz-adv-x="995" 
d="M377 627c0 -187.333 9.83301 -306.166 29.5 -356.499s56.167 -75.5 109.5 -75.5c47.333 0 79.666 21.667 96.999 65s26 150.666 26 321.999c0 166 -8.66699 271.667 -26 317s-49.666 68 -96.999 68c-53.333 0 -89.833 -20.667 -109.5 -62s-29.5 -134 -29.5 -278z
M117 -389v1546h254v-121c21.333 50.667 51.833 88.667 91.5 114s87.5 38 143.5 38c112 0 190.833 -44.333 236.5 -133s68.5 -245.667 68.5 -471c0 -233.333 -22.167 -394.166 -66.5 -482.499s-121.833 -132.5 -232.5 -132.5c-54.667 0 -100.5 10.667 -137.5 32
s-66.833 53.666 -89.5 96.999v-487h-268z" />
    <glyph glyph-name="q" unicode="q" horiz-adv-x="995" 
d="M479 967c-47.333 0 -79.668 -23.168 -97.001 -69.501s-26 -159.166 -26 -338.499c0 -156.667 8.83301 -256.5 26.5 -299.5s49.834 -64.5 96.501 -64.5c53.333 0 89.833 25.167 109.5 75.5s29.5 177.833 29.5 382.5c0 128 -9.83301 212.333 -29.5 253
s-56.167 61 -109.5 61zM609.998 97.999c-22 -43.333 -51.667 -75.666 -89 -96.999s-83.333 -32 -138 -32c-110 0 -187.333 44.167 -232 132.5s-67 249.166 -67 482.499c0 225.333 23 382.333 69 471s124.667 133 236 133c56.667 0 104.667 -12.667 144 -38
s70 -63.333 92 -114v121h254v-1546h-269v487z" />
    <glyph glyph-name="r" unicode="r" horiz-adv-x="692" 
d="M119 0l-0.000976562 1157h256v-188c36.667 78 75.834 133.667 117.501 167s92.5 50.333 152.5 51v-325c-10 1.33301 -20 2.33301 -30 3s-22.333 1 -37 1c-57.333 0 -102.833 -17 -136.5 -51s-50.5 -79.667 -50.5 -137v-678h-272z" />
    <glyph glyph-name="s" unicode="s" horiz-adv-x="901" 
d="M76 385h241.001v-33c0 -66.667 10.167 -114 30.5 -142s54.166 -42 101.499 -42c37.333 0 66.666 10 87.999 30s32 47.667 32 83c0 44 -43 94.667 -129 152l-51 34c-2.66699 2 -7 5 -13 9c-196 134.667 -294 266.667 -294 396c0 102.667 31.833 181 95.5 235
s156.167 81 277.5 81c117.333 0 205.333 -29.833 264 -89.5s88 -150.167 88 -271.5v-24h-236v24c0 56 -10.667 97 -32 123s-55 39 -101 39c-33.333 0 -60 -9.16699 -80 -27.5s-30 -42.5 -30 -72.5c0 -28 8.83301 -53.333 26.5 -76s57.167 -54.667 118.5 -96l61 -41
c194 -128 291 -256.333 291 -385c0 -102.667 -32.833 -182 -98.5 -238s-159.167 -84 -280.5 -84c-127.333 0 -221.166 30 -281.499 90s-90.5 153.667 -90.5 281c0 4.66699 0.333008 12 1 22s1 17.667 1 23z" />
    <glyph glyph-name="t" unicode="t" horiz-adv-x="557" 
d="M399 428l0.00292969 -78c0 -62 5.83301 -101.333 17.5 -118s33.167 -25 64.5 -25c7.33301 0 13.166 0.166992 17.499 0.5s8.16602 0.5 11.499 0.5v-208c-38.667 -4 -68.834 -6.66699 -90.501 -8s-39.167 -2 -52.5 -2c-90 0 -151.833 17.833 -185.5 53.5
s-50.5 109.167 -50.5 220.5v694h-104v199h104v316h268v-316h111v-199h-111v-530z" />
    <glyph glyph-name="u" unicode="u" horiz-adv-x="991" 
d="M877 1157l0.00195312 -1157h-263v115c-27.333 -48 -61.5 -84.333 -102.5 -109s-87.833 -37 -140.5 -37c-84 0 -148 23.833 -192 71.5s-66 116.834 -66 207.501v909h258v-756c0 -76.667 8.66699 -129.5 26 -158.5s46.666 -43.5 87.999 -43.5c45.333 0 77.166 16 95.499 48
s27.5 89 27.5 171v739h269z" />
    <glyph glyph-name="v" unicode="v" horiz-adv-x="909" 
d="M291 0l-268 1157h284l154 -885l147 885h277l-267 -1157h-327z" />
    <glyph glyph-name="w" unicode="w" horiz-adv-x="1341" 
d="M274 0l-247 1157h280l123 -856l131 856h219l156 -868l111 868h266l-223 -1157h-287l-131 688l-105 -688h-293z" />
    <glyph glyph-name="x" unicode="x" horiz-adv-x="895" 
d="M14 0l305 592l-292 565h305l125 -289l125 289h292l-286 -565l293 -592h-297l-133 309l-134 -309h-303z" />
    <glyph glyph-name="y" unicode="y" horiz-adv-x="909" 
d="M176 -379l0.00195312 200.001c5.33301 0 11 -0.166992 17 -0.5s14.667 -0.5 26 -0.5c38 0 65.667 6.16699 83 18.5s26 32.166 26 59.499c0 8.66699 -1 19 -3 31s-4.66699 23.667 -8 35l-297 1193h283l160 -835l155 835h271l-301 -1266
c-26.667 -110 -62.167 -183.833 -106.5 -221.5s-114.833 -56.5 -211.5 -56.5c-14.667 0 -29.834 0.666992 -45.501 2s-31.834 3.33301 -48.501 6z" />
    <glyph glyph-name="z" unicode="z" horiz-adv-x="784" 
d="M43 0v213l391 719h-387v225h688v-194l-403 -736h407v-227h-696z" />
    <glyph glyph-name="braceleft" unicode="{" 
d="M883 1477v-208.998c-6 0 -14.333 0.333008 -25 1s-18 1 -22 1c-67.333 0 -112.833 -12.833 -136.5 -38.5s-35.5 -79.834 -35.5 -162.501v-240c0 -98.667 -15 -168.667 -45 -210s-84 -71 -162 -89c78 -18 132 -47.333 162 -88s45 -110.334 45 -209.001v-241
c0 -82 11.667 -135.667 35 -161s69 -38 137 -38c4 0 11.333 0.333008 22 1s19 1 25 1v-209c-9.33301 0 -22.333 -0.333008 -39 -1s-29 -1 -37 -1c-66.667 0 -122.334 4 -167.001 12s-82.667 20.333 -114 37c-38 22.667 -64.833 53.167 -80.5 91.5s-23.5 104.833 -23.5 199.5
v252c0 91.333 -17 156.166 -51 194.499s-91.333 57.5 -172 57.5c-4 0 -10.667 -0.333008 -20 -1s-16.333 -1 -21 -1v209c4.66699 0 11.667 -0.333008 21 -1s16 -1 20 -1c80 0 137.167 19.333 171.5 58s51.5 104 51.5 196v250c0 95.333 7.83301 162.333 23.5 201
s42.5 69.334 80.5 92.001c31.333 16.667 69.333 29 114 37s100.334 12 167.001 12c8 0 20.333 -0.333008 37 -1s29.667 -1 39 -1z" />
    <glyph glyph-name="bar" unicode="|" 
d="M410 1565h206v-2048h-206v2048z" />
    <glyph glyph-name="braceright" unicode="}" 
d="M143 1477h68.001c73.333 0 132.333 -4 177 -12s82 -20.667 112 -38c38 -21.333 64.833 -51.833 80.5 -91.5s23.5 -105.834 23.5 -198.501v-252c0 -91.333 17 -156.166 51 -194.499s91.333 -57.5 172 -57.5c4 0 10.667 0.333008 20 1s16.333 1 21 1v-209h-37
c-83.333 0 -142 -18.667 -176 -56s-51 -102 -51 -194v-252c0 -95.333 -7.83301 -162.333 -23.5 -201s-42.5 -68.667 -80.5 -90c-31.333 -16.667 -69.333 -29 -114 -37s-100.334 -12 -167.001 -12c-8 0 -20.333 0.333008 -37 1s-29.667 1 -39 1v209
c6 0 14.333 -0.333008 25 -1s18 -1 22 -1c67.333 0 112.833 12.833 136.5 38.5s35.5 79.167 35.5 160.5v239c0 100 15 170.5 45 211.5s84 70.167 162 87.5c-78 18 -132 47.667 -162 89s-45 111.333 -45 210v242c0 81.333 -11.833 134.833 -35.5 160.5
s-69.167 38.5 -136.5 38.5c-4 0 -11.333 -0.333008 -22 -1s-19 -1 -25 -1v209z" />
    <glyph glyph-name="asciitilde" unicode="~" horiz-adv-x="1706" 
d="M1530 803l0.00390625 -221c-69.333 -47.333 -134.833 -82.166 -196.5 -104.499s-122.5 -33.5 -182.5 -33.5c-30.667 0 -61.334 2.66699 -92.001 8s-61.334 13 -92.001 23c-16 5.33301 -39.667 13.666 -71 24.999c-146 50 -257 75 -333 75
c-56.667 0 -115.834 -12.5 -177.501 -37.5s-130.834 -64.833 -207.501 -119.5v221c71.333 48 139.333 83.833 204 107.5s125.667 35.5 183 35.5c78 0 175 -19.333 291 -58c2 -0.666992 3.33301 -1 4 -1l55 -19c103.333 -36.667 183.333 -55 240 -55s115 12.333 175 37
s126.667 63.667 200 117z" />
    <glyph glyph-name="nonbreakingspace" unicode="&#xa0;" 
 />
    <glyph glyph-name="exclamdown" unicode="&#xa1;" horiz-adv-x="598" 
d="M383 1139l51 -639v-500h-274v500l51 639h172zM428 1540v-276h-262v276h262z" />
    <glyph glyph-name="cent" unicode="&#xa2;" 
d="M426 -328l-0.00195312 327.995c-105.333 13.333 -178.5 60.333 -219.5 141s-61.5 239.667 -61.5 477c0 230.667 20.333 383.5 61 458.5s114 119.5 220 133.5v279h182v-279c87.333 -11.333 152.5 -47.666 195.5 -108.999s64.5 -147.666 64.5 -258.999
c0 -17.333 -0.166992 -30.166 -0.5 -38.499s-0.833008 -16.166 -1.5 -23.499h-256v49c0 72.667 -6.66699 120.334 -20 143.001s-37.333 34 -72 34c-39.333 0 -66.166 -15.833 -80.499 -47.5s-21.5 -107.5 -21.5 -227.5v-117v-141c0 -113.333 7 -186 21 -218
s39.667 -48 77 -48s63 15.333 77 46s21 92.334 21 185.001v43h252c0 -6.66699 0.333008 -16.334 1 -29.001s1 -22 1 -28c0 -135.333 -21.167 -238 -63.5 -308s-107.166 -108.667 -194.499 -116v-328h-182z" />
    <glyph glyph-name="sterling" unicode="&#xa3;" 
d="M147 -29l-74.9971 192.999c64.667 44.667 115.334 97.334 152.001 158.001s55 122.667 55 186c0 22.667 -1.5 46.167 -4.5 70.5s-7.16699 49.166 -12.5 74.499h-190v142h127c-31.333 50.667 -55 104.667 -71 162s-24 117.333 -24 180c0 126 39.167 226.333 117.5 301
s183.5 112 315.5 112c137.333 0 241.5 -34.5 312.5 -103.5s106.5 -170.167 106.5 -303.5c0 -17.333 -0.166992 -30.666 -0.5 -39.999s-0.833008 -18 -1.5 -26h-256v37c0 78 -13 135.333 -39 172s-66.667 55 -122 55c-51.333 0 -90.833 -18.667 -118.5 -56
s-41.5 -90.333 -41.5 -159c0 -47.333 8.16699 -99.833 24.5 -157.5s39.5 -115.5 69.5 -173.5h291v-142h-242c4 -14 7 -28.167 9 -42.5s3 -28.833 3 -43.5c0 -62.667 -18.833 -126 -56.5 -190s-93.834 -127 -168.501 -189c36.667 20.667 71.167 35.834 103.5 45.501
s64.166 14.5 95.499 14.5c30 0 72.667 -6.5 128 -19.5s97.333 -19.5 126 -19.5c25.333 0 51.666 5.16699 78.999 15.5s57 26.166 89 47.499l59 -223c-33.333 -24 -70.5 -42.333 -111.5 -55s-85.167 -19 -132.5 -19c-46.667 0 -111.667 10 -195 30s-143 30 -179 30
c-32 0 -66.333 -5.33301 -103 -16s-76.334 -26.667 -119.001 -48z" />
    <glyph glyph-name="currency" unicode="&#xa4;" horiz-adv-x="1241" 
d="M623 1161c-75.333 0 -140.333 -27.333 -195 -82s-82 -119.334 -82 -194.001c0 -76 27 -140.833 81 -194.5s119.333 -80.5 196 -80.5c75.333 0 140.166 26.833 194.499 80.5s81.5 118.5 81.5 194.5c0 74.667 -27.167 139.334 -81.5 194.001s-119.166 82 -194.499 82z
M172 1438l204.999 -203c36 26 74 45.5 114 58.5s83.333 19.5 130 19.5s90.5 -6.5 131.5 -19.5s79.5 -32.5 115.5 -58.5l203 203l105 -107l-203 -205c25.333 -35.333 44.333 -73.166 57 -113.499s19 -82.833 19 -127.5s-6.33301 -87 -19 -127s-31.667 -78.333 -57 -115
l203 -205l-105 -104l-203 203c-36 -26.667 -74.333 -46.334 -115 -59.001s-84 -19 -130 -19c-48 0 -92.167 6.33301 -132.5 19s-78.166 32.334 -113.499 59.001l-205 -203l-104 104l202 205c-25.333 36 -44.166 73.833 -56.499 113.5s-18.5 82.5 -18.5 128.5
c0 44.667 6.16699 87.167 18.5 127.5s31.166 78.166 56.499 113.499l-202 205z" />
    <glyph glyph-name="yen" unicode="&#xa5;" horiz-adv-x="1139" 
d="M1104 1522l-215 -467h203v-144h-267l-65 -141h332v-143h-385v-627h-269v627h-389v143h334l-64 141h-270v144h203l-219 467h284l258 -594l252 594h277z" />
    <glyph glyph-name="brokenbar" unicode="&#xa6;" 
d="M410 408h206v-758h-206v758zM410 1432h206v-758h-206v758z" />
    <glyph glyph-name="section" unicode="&#xa7;" 
d="M635 500c24 14 42.333 31 55 51s19 42.333 19 67c0 21.333 -6 40.833 -18 58.5s-35.333 39.167 -70 64.5l-224 164c-26 -13.333 -46.167 -28.833 -60.5 -46.5s-21.5 -36.167 -21.5 -55.5c0 -52 78 -132.667 234 -242zM119 164l254 -0.000976562
c0 -3.33301 -0.333008 -8.33301 -1 -15s-1 -12 -1 -16c0 -44.667 11.167 -78.334 33.5 -101.001s56.166 -34 101.499 -34c44 0 76.5 9.33301 97.5 28s31.5 47.667 31.5 87c0 24.667 -7.16699 47.167 -21.5 67.5s-47.5 49.5 -99.5 87.5l-248 187
c-74 54.667 -123.833 104 -149.5 148s-38.5 95.667 -38.5 155c0 65.333 16.333 120 49 164s79.667 74.667 141 92c-39.333 27.333 -68.5 60.333 -87.5 99s-28.5 84.667 -28.5 138c0 104.667 33.5 185.167 100.5 241.5s162.5 84.5 286.5 84.5
c116.667 0 205.834 -27 267.501 -81s92.5 -132 92.5 -234c0 -3.33301 -0.333008 -8.66602 -1 -15.999s-1 -13 -1 -17h-250v14c0 46 -9.5 79.667 -28.5 101s-49.167 32 -90.5 32s-71.333 -7.66699 -90 -23s-28 -39.666 -28 -72.999c0 -56.667 45 -116.334 135 -179.001
l22 -16l150 -106c93.333 -65.333 154.833 -121.166 184.5 -167.499s44.5 -101.833 44.5 -166.5c0 -66 -15.667 -119.5 -47 -160.5s-78.333 -70.167 -141 -87.5c43.333 -25.333 75.666 -61.833 96.999 -109.5s32 -108.167 32 -181.5c0 -106 -33.167 -185.667 -99.5 -239
s-165.833 -80 -298.5 -80c-125.333 0 -218.666 27.5 -279.999 82.5s-92 138.833 -92 251.5c0 4 0.333008 10.833 1 20.5s1 17.167 1 22.5z" />
    <glyph glyph-name="dieresis" unicode="&#xa8;" 
d="M573 1303v237h220v-237h-220zM231 1303v237h220v-237h-220z" />
    <glyph glyph-name="copyright" unicode="&#xa9;" horiz-adv-x="1706" 
d="M1212 897l-188.001 -0.00195312c-5.33301 46.667 -23 82.834 -53 108.501s-69.667 38.5 -119 38.5c-60.667 0 -108.334 -27.167 -143.001 -81.5s-52 -130.166 -52 -227.499c0 -98 17.333 -172.667 52 -224s85 -77 151 -77c48.667 0 87.667 14 117 42s47 67.667 53 119
l193 1c-5.33301 -92.667 -41.666 -167 -108.999 -223s-154 -84 -260 -84c-124 0 -221.833 39.333 -293.5 118s-107.5 186 -107.5 322c0 137.333 36.5 246.833 109.5 328.5s170.833 122.5 293.5 122.5c101.333 0 184.833 -26 250.5 -78s100.834 -120.333 105.501 -205z
M853.999 1356c-85.333 0 -165.168 -15.3311 -239.501 -45.998s-140.5 -75.334 -198.5 -134.001c-59.333 -60 -104.666 -127.833 -135.999 -203.5s-47 -154.834 -47 -237.501c0 -83.333 15.667 -162.333 47 -237s76.666 -141.667 135.999 -201
c58.667 -58.667 125.667 -103.667 201 -135s154.333 -47 237 -47s161.834 15.667 237.501 47s143.834 77 204.501 137c58.667 57.333 103.167 123 133.5 197s45.5 153.667 45.5 239c0 84 -15.5 163.5 -46.5 238.5s-75.833 141.833 -134.5 200.5
c-59.333 59.333 -126.333 104.5 -201 135.5s-154.334 46.5 -239.001 46.5zM851.997 1479c101.333 0 197.167 -18.668 287.5 -56.001s171.166 -91.666 242.499 -162.999c70 -70 123.333 -150.167 160 -240.5s55 -185.833 55 -286.5c0 -101.333 -18.167 -196 -54.5 -284
s-89.833 -166.667 -160.5 -236c-74 -72 -156.667 -127.167 -248 -165.5s-185.333 -57.5 -282 -57.5c-98 0 -191.5 18.833 -280.5 56.5s-169.5 92.5 -241.5 164.5c-71.333 70.667 -125.666 150.834 -162.999 240.501s-56 183.5 -56 281.5c0 99.333 18.667 194.166 56 284.499
s91.666 171.833 162.999 244.5c70 70.667 149.333 124.5 238 161.5s183.334 55.5 284.001 55.5z" />
    <glyph glyph-name="ordfeminine" unicode="&#xaa;" horiz-adv-x="745" 
d="M471 1155c-76 -36 -127.5 -67.833 -154.5 -95.5s-40.5 -60.5 -40.5 -98.5c0 -36 7.33301 -62.5 22 -79.5s37.667 -25.5 69 -25.5c34 0 59.833 14.333 77.5 43s26.5 71 26.5 127v129zM497 732c-3.33301 5.33301 -6.66699 14.333 -10 27s-6.66602 30 -9.99902 52
c-21.333 -33.333 -48.5 -58.333 -81.5 -75s-71.833 -25 -116.5 -25c-66 0 -117.333 20.5 -154 61.5s-55 98.167 -55 171.5c0 67.333 16.167 120.833 48.5 160.5s95.833 79.167 190.5 118.5l40 16c78.667 31.333 118 68.333 118 111c0 25.333 -7.5 45 -22.5 59
s-36.833 21 -65.5 21c-36.667 0 -63.667 -9.16699 -81 -27.5s-26 -46.833 -26 -85.5v-17h-194c0 91.333 23.667 157.666 71 198.999s124 62 230 62c105.333 0 179.166 -19 221.499 -57s63.5 -104.333 63.5 -199v-457c0 -22 2.16699 -42.167 6.5 -60.5
s11.5 -37.166 21.5 -56.499z" />
    <glyph glyph-name="guillemotleft" unicode="&#xab;" horiz-adv-x="989" 
d="M852 965v-222l-193 -163l193 -166v-221l-313 282v207zM451 965v-222l-193 -163l193 -166v-221l-314 282v207z" />
    <glyph glyph-name="logicalnot" unicode="&#xac;" horiz-adv-x="1706" 
d="M254 864h1198v-502h-199v306h-999v196z" />
    <glyph glyph-name="sfthyphen" unicode="&#xad;" horiz-adv-x="672" 
d="M92 459v239h488v-239h-488z" />
    <glyph glyph-name="registered" unicode="&#xae;" horiz-adv-x="1706" 
d="M745 1034l-0.000976562 -239h99c58.667 0 101.667 9.33301 129 28s41 48 41 88c0 42 -14.667 73 -44 93s-74.666 30 -135.999 30h-89zM544.999 1161l323 0.00195312c117.333 0 205.5 -19.833 264.5 -59.5s88.5 -98.834 88.5 -177.501
c0 -54.667 -16 -101.334 -48 -140.001s-76.333 -65 -133 -79l185 -369h-224l-157 338h-99v-338h-200v825zM853.999 1356c-84.667 0 -163.331 -14.834 -235.998 -44.501s-138 -73.5 -196 -131.5c-60.667 -60.667 -107.334 -129.5 -140.001 -206.5s-49 -156.5 -49 -238.5
c0 -82.667 15.333 -161.167 46 -235.5s75 -140.5 133 -198.5c59.333 -60.667 127 -107.167 203 -139.5s155 -48.5 237 -48.5c80 0 157.833 15.667 233.5 47s144.5 76.333 206.5 135c58 56 103 121.333 135 196s48 152 48 232c0 88.667 -14.833 170.334 -44.5 245.001
s-73.834 141.667 -132.501 201c-60 62 -127.5 108.667 -202.5 140s-155.5 47 -241.5 47zM852.002 1479c102.667 0 199.498 -19.1689 290.498 -57.502s172.167 -93.833 243.5 -166.5c68.667 -69.333 121 -148.666 157 -237.999s54 -184 54 -284
c0 -101.333 -18.667 -197.166 -56 -287.499s-91.666 -169.833 -162.999 -238.5c-71.333 -70 -152.5 -123.667 -243.5 -161s-185.167 -56 -282.5 -56c-99.333 0 -194.333 19.333 -285 58s-171.667 94.334 -243 167.001c-69.333 70 -122.166 149.5 -158.499 238.5
s-54.5 182.167 -54.5 279.5c0 68 9 134.167 27 198.5s45 127.166 81 188.499c67.333 113.333 156.333 201.5 267 264.5s232.667 94.5 366 94.5z" />
    <glyph glyph-name="macron" unicode="&#xaf;" 
d="M252 1341v162h520v-162h-520z" />
    <glyph glyph-name="degree" unicode="&#xb0;" horiz-adv-x="674" 
d="M338 1335c-48.667 0 -90.167 -17 -124.5 -51s-51.5 -75 -51.5 -123c0 -49.333 17 -91 51 -125s75.667 -51 125 -51c48 0 89 17.333 123 52s51 76 51 124s-17 89 -51 123s-75 51 -123 51zM338 1464c84 0 155.5 -29.835 214.5 -89.502s88.5 -131.5 88.5 -215.5
c0 -83.333 -29.667 -154.666 -89 -213.999s-131.333 -89 -216 -89c-84 0 -155.167 29.333 -213.5 88s-87.5 130.334 -87.5 215.001s29.5 156.667 88.5 216s130.5 89 214.5 89z" />
    <glyph glyph-name="plusminus" unicode="&#xb1;" horiz-adv-x="1706" 
d="M254 197h1198v-199h-1198v199zM752 1223h202v-326h498v-199h-498v-325h-202v325h-498v199h498v326z" />
    <glyph glyph-name="twosuperior" unicode="&#xb2;" horiz-adv-x="676" 
d="M57 608l-0.00195312 29.0029c0 72.667 16.167 141.667 48.5 207s81.166 128 146.499 188c10.667 10.667 33.334 31 68.001 61s58.334 54 71.001 72c14 18 24.333 37.667 31 59s10 44.666 10 69.999c0 39.333 -8 68.666 -24 87.999s-40 29 -72 29
c-33.333 0 -57.666 -11.833 -72.999 -35.5s-23 -60.834 -23 -111.501v-35h-177c0 3.33301 -0.333008 8.33301 -1 15s-1 12 -1 16c0 95.333 22.667 165.5 68 210.5s116.333 67.5 213 67.5c90.667 0 160.167 -20.167 208.5 -60.5s72.5 -98.5 72.5 -174.5
c0 -36 -4.5 -69 -13.5 -99s-22.5 -58.667 -40.5 -86c-14.667 -22 -48 -57.333 -100 -106l-53 -49c-59.333 -59.333 -99.833 -103 -121.5 -131s-36.5 -53.333 -44.5 -76h360v-148h-553z" />
    <glyph glyph-name="threesuperior" unicode="&#xb3;" horiz-adv-x="676" 
d="M55 920l177.999 -0.00390625v-13c0 -68.667 7.83301 -116.5 23.5 -143.5s42.167 -40.5 79.5 -40.5s63.333 11.833 78 35.5s22 67.167 22 130.5c0 62.667 -9.16699 103.834 -27.5 123.501s-54.166 29.5 -107.499 29.5c-12 0 -22 -0.166992 -30 -0.5s-15.667 -0.5 -23 -0.5
v120h12c60.667 0 102.5 9.33301 125.5 28s34.5 53 34.5 103c0 46 -6.83301 78 -20.5 96s-36.834 27 -69.501 27c-32 0 -55 -10 -69 -30s-21 -53 -21 -99v-22h-174c-1.33301 4.66699 -2.16602 9.33398 -2.49902 14.001s-0.5 11.334 -0.5 20.001c0 80 23 140 69 180
s114.667 60 206 60c84 0 149 -20.667 195 -62s69 -100 69 -176c0 -51.333 -10.167 -93.666 -30.5 -126.999s-49.833 -55 -88.5 -65c48 -11.333 83.667 -35 107 -71s35 -85.333 35 -148c0 -100.667 -24.333 -175.334 -73 -224.001s-122.667 -73 -222 -73
c-94 0 -163.667 23.833 -209 71.5s-68 120.834 -68 219.501c0 4 0.333008 10 1 18s1 14.333 1 19z" />
    <glyph glyph-name="acute" unicode="&#xb4;" 
d="M371 1280l174 285h256l-305 -285h-125z" />
    <glyph glyph-name="mu" unicode="&#xb5;" horiz-adv-x="1249" 
d="M205 1092h289.001l-76 -435c-10 -53.333 -17.667 -103.833 -23 -151.5s-8 -86.5 -8 -116.5c0 -62 14 -108.167 42 -138.5s70.667 -45.5 128 -45.5c66.667 0 118.5 27.333 155.5 82s67.833 151.667 92.5 291l90 514h289l-193 -1092h-268l18 117
c-28 -52 -59.167 -90 -93.5 -114s-74.833 -36 -121.5 -36c-44.667 0 -84.334 9.83301 -119.001 29.5s-66 50.167 -94 91.5l-90 -526h-286z" />
    <glyph glyph-name="paragraph" unicode="&#xb6;" 
d="M983 1479v-111h-113v-1368h-151v1368h-158v-1368h-153v784c-111.333 4 -200.333 37.667 -267 101s-100 145 -100 245c0 105.333 35.667 189.833 107 253.5s166 95.5 284 95.5h551z" />
    <glyph glyph-name="periodcentered" unicode="&#xb7;" horiz-adv-x="512" 
d="M96 758c0 44.667 15.5 82.5 46.5 113.5s68.833 46.5 113.5 46.5c43.333 0 80.833 -15.833 112.5 -47.5s47.5 -69.167 47.5 -112.5s-15.667 -80.5 -47 -111.5s-69 -46.5 -113 -46.5c-44.667 0 -82.5 15.167 -113.5 45.5s-46.5 67.833 -46.5 112.5z" />
    <glyph glyph-name="cedilla" unicode="&#xb8;" 
d="M272 -319c63.333 -10.667 110.167 -17.834 140.5 -21.501s54.5 -5.5 72.5 -5.5c29.333 0 51 5.83301 65 17.5s21 29.834 21 54.501c0 20.667 -8.33301 36 -25 46s-43 15 -79 15h-23v213h115v-83c65.333 -6 115.166 -25.5 149.499 -58.5s51.5 -77.833 51.5 -134.5
c0 -66.667 -22.167 -118.167 -66.5 -154.5s-106.833 -54.5 -187.5 -54.5c-28 0 -60.667 2.16699 -98 6.5s-82.666 11.5 -135.999 21.5v138z" />
    <glyph glyph-name="onesuperior" unicode="&#xb9;" horiz-adv-x="676" 
d="M285 608v652h-226l1 108c82.667 2 147.667 17.333 195 46s75 70 83 124h125v-930h-178z" />
    <glyph glyph-name="ordmasculine" unicode="&#xba;" horiz-adv-x="735" 
d="M268 1145l0.000976562 -19c0 -127.333 6.66699 -204.5 20 -231.5s39.666 -40.5 78.999 -40.5s65.833 12.833 79.5 38.5s20.5 94.167 20.5 205.5v32v48c0 106 -7 172.333 -21 199s-40.333 40 -79 40c-38 0 -64 -12.167 -78 -36.5s-21 -84.5 -21 -180.5v-55zM61.001 1135
c0 164 22.668 276.333 68.001 337s124.666 91 237.999 91c114 0 193.667 -30.667 239 -92s68 -173.333 68 -336s-22.5 -274 -67.5 -334s-124.833 -90 -239.5 -90c-114 0 -193.5 29.833 -238.5 89.5s-67.5 171.167 -67.5 334.5z" />
    <glyph glyph-name="guillemotright" unicode="&#xbb;" horiz-adv-x="989" 
d="M539 965l313 -283v-207l-313 -282v221l192 166l-192 163v222zM137 965l314 -283v-207l-314 -282v221l193 166l-193 163v222z" />
    <glyph glyph-name="onequarter" unicode="&#xbc;" horiz-adv-x="1632" 
d="M1161 295h180v352zM1337 0v170h-307v139l289 543h184v-553h82v-129h-82v-170h-166zM457 -29h-154l868 1579h156zM272 670v607.999h-215v102c79.333 1.33301 141.5 15.333 186.5 42s71.833 65.334 80.5 116.001h118v-868h-170z" />
    <glyph glyph-name="onehalf" unicode="&#xbd;" horiz-adv-x="1632" 
d="M1042 0c0 2.66699 -0.332031 7.16406 -0.999023 13.4971s-1 10.833 -1 13.5c0 66 15.5 129.5 46.5 190.5s77.833 120.167 140.5 177.5c11.333 10.667 28.666 26 51.999 46c42 34.667 69.667 61 83 79c12.667 16.667 22 34.834 28 54.501s9 41.834 9 66.501
c0 36.667 -7.5 64 -22.5 82s-37.5 27 -67.5 27c-32 0 -55.333 -11 -70 -33s-22 -57 -22 -105v-32h-168c0 3.33301 -0.333008 8 -1 14s-1 10.667 -1 14c0 90 21.167 155.833 63.5 197.5s109.833 62.5 202.5 62.5c86 0 152.167 -19 198.5 -57s69.5 -92.667 69.5 -164
c0 -32 -4.16699 -61.833 -12.5 -89.5s-21.166 -55.167 -38.499 -82.5c-12.667 -19.333 -42.334 -49.666 -89.001 -90.999l-57 -52l-11 -12c-86 -85.333 -134.667 -146.333 -146 -183h342v-137h-527zM457.001 -29.0029h-154l868 1579h156zM272.001 669.997v607.999h-215v102
c79.333 1.33301 141.5 15.333 186.5 42s71.833 65.334 80.5 116.001h118v-868h-170z" />
    <glyph glyph-name="threequarters" unicode="&#xbe;" horiz-adv-x="1632" 
d="M1161 295h180v352zM1337 0v170h-307v139l289 543h184v-553h82v-129h-82v-170h-166zM457 -29h-154l868 1579h156zM53 961l167.999 -0.000976562v-11c0 -64.667 7.5 -109.834 22.5 -135.501s40.167 -38.5 75.5 -38.5c36 0 61.167 11.167 75.5 33.5
s21.5 63.166 21.5 122.499c0 58 -8.83301 96.333 -26.5 115s-51.834 28 -102.501 28c-11.333 0 -20.833 -0.166992 -28.5 -0.5s-15.167 -0.833008 -22.5 -1.5v113h14c56 0 94.833 8.66699 116.5 26s32.5 49 32.5 95c0 42.667 -6.16699 72.334 -18.5 89.001
s-34.166 25 -65.499 25c-30 0 -51.833 -9.16699 -65.5 -27.5s-20.5 -48.5 -20.5 -90.5v-21h-168v33c0 74 22 129.667 66 167s109.667 56 197 56c80 0 141.5 -19.333 184.5 -58s64.5 -93.667 64.5 -165c0 -48 -9.33301 -87.5 -28 -118.5s-46 -51.5 -82 -61.5
c44.667 -10.667 78 -32.667 100 -66s33 -79 33 -137c0 -94 -23.167 -164 -69.5 -210s-116.833 -69 -211.5 -69c-89.333 0 -155.666 22.333 -198.999 67s-65 113.334 -65 206.001c0 3.33301 0.333008 8.83301 1 16.5s1 13.834 1 18.501z" />
    <glyph glyph-name="questiondown" unicode="&#xbf;" horiz-adv-x="1006" 
d="M645 414l251.998 -0.000976562v-39c0 -132 -34.167 -233.333 -102.5 -304s-165.833 -106 -292.5 -106c-123.333 0 -220.166 34.833 -290.499 104.5s-105.5 165.167 -105.5 286.5c0 46 5.16699 88.667 15.5 128s25.833 75.333 46.5 108c24.667 40 62.667 89.667 114 149
s85 100.333 101 123c24 32 41.667 66.333 53 103s17 78.334 17 125.001c0 4 -0.333008 10 -1 18s-1 14 -1 18h241c0.666992 -8 1.16699 -16.833 1.5 -26.5s0.5 -23.834 0.5 -42.501c0 -71.333 -8.83301 -133.666 -26.5 -186.999s-49.167 -109 -94.5 -167
c-11.333 -15.333 -28.666 -36.333 -51.999 -63c-89.333 -103.333 -134 -203.333 -134 -300c0 -53.333 10.667 -94 32 -122s52.333 -42 93 -42c44.667 0 78 16.5 100 49.5s33 82.833 33 149.5v37zM437.998 1274v266h256v-266h-256z" />
    <glyph glyph-name="Agrave" unicode="&#xc0;" horiz-adv-x="1120" 
d="M430 618h244l-123 646zM18 0l347 1540h385l350 -1540h-309l-76 387h-330l-74 -387h-293zM702 1669h-125l-305 285h256z" />
    <glyph glyph-name="Aacute" unicode="&#xc1;" horiz-adv-x="1120" 
d="M430 618h244l-123 646zM18 0l347 1540h385l350 -1540h-309l-76 387h-330l-74 -387h-293zM420 1669l174 285h256l-305 -285h-125z" />
    <glyph glyph-name="Acircumflex" unicode="&#xc2;" horiz-adv-x="1120" 
d="M430 618h244l-123 646zM18 0l347 1540h385l350 -1540h-309l-76 387h-330l-74 -387h-293zM285 1669l174 285h204l174 -285h-124l-152 150l-152 -150h-124z" />
    <glyph glyph-name="Atilde" unicode="&#xc3;" horiz-adv-x="1120" 
d="M430 618h244l-123 646zM18 0l347 1540h385l350 -1540h-309l-76 387h-330l-74 -387h-293zM368 1681l-88.001 -0.000976562c13.333 77.333 35 135.333 65 174s68 58 114 58c10 0 20.167 -0.666992 30.5 -2s20.5 -3.33301 30.5 -6l110 -33c7.33301 -2 15 -3.5 23 -4.5
s16.333 -1.5 25 -1.5c20 0 36.333 6.33301 49 19s21.667 31.334 27 56.001h88c-11.333 -74.667 -33.333 -132.834 -66 -174.501s-73 -62.5 -121 -62.5c-9.33301 0 -18 0.666992 -26 2s-16.333 3.33301 -25 6l-121 35c-5.33301 2 -10.666 3.5 -15.999 4.5s-11 1.5 -17 1.5
c-21.333 0 -39 -6.16699 -53 -18.5s-23.667 -30.166 -29 -53.499z" />
    <glyph glyph-name="Adieresis" unicode="&#xc4;" horiz-adv-x="1120" 
d="M430 618h244l-123 646zM18 0l347 1540h385l350 -1540h-309l-76 387h-330l-74 -387h-293zM622 1692v237h220v-237h-220zM280 1692v237h220v-237h-220z" />
    <glyph glyph-name="Aring" unicode="&#xc5;" horiz-adv-x="1120" 
d="M475 1772c0 -21.333 8.16797 -40 24.501 -56s35.5 -24 57.5 -24s40.5 7.66699 55.5 23s22.5 34.333 22.5 57c0 22 -7.33301 40.333 -22 55s-33.334 22 -56.001 22s-42 -7.5 -58 -22.5s-24 -33.167 -24 -54.5zM356.001 1772c0 54.667 19.667 101.668 59 141.001
s86.666 59 141.999 59s102.333 -19.5 141 -58.5s58 -86.167 58 -141.5c0 -56 -19.333 -103.5 -58 -142.5s-85.667 -58.5 -141 -58.5s-102.666 19.667 -141.999 59s-59 86.666 -59 141.999zM430.001 618.001h244l-123 646zM18.001 0.000976562l347 1518h385l350 -1518h-309
l-76 387h-330l-74 -387h-293z" />
    <glyph glyph-name="AE" unicode="&#xc6;" horiz-adv-x="1567" 
d="M465 612h252v672h-37zM-45 0l584 1540h946v-256h-494v-358h461v-240h-461v-428h498v-258h-772v393h-326l-131 -393h-305z" />
    <glyph glyph-name="Ccedilla" unicode="&#xc7;" horiz-adv-x="1122" 
d="M743 549h279.001c0 -6.66699 0.333008 -16.5 1 -29.5s1 -23.167 1 -30.5c0 -178 -37.5 -310.167 -112.5 -396.5s-189.833 -129.5 -344.5 -129.5c-73.333 0 -136.333 9.5 -189 28.5s-98 48.5 -136 88.5c-52 53.333 -88.667 126.666 -110 219.999s-32 256 -32 488
c0 158.667 6.33301 284.834 19 378.501s32.334 163.5 59.001 209.5c41.333 70.667 92.666 121.834 153.999 153.501s139.666 47.5 234.999 47.5c156 0 269.5 -40.667 340.5 -122s106.833 -212 107.5 -392h-278v37c0 83.333 -13.5 145.5 -40.5 186.5
s-68.167 61.5 -123.5 61.5c-68.667 0 -115.5 -28.333 -140.5 -85s-37.5 -213.334 -37.5 -470.001c0 -277.333 12.167 -446 36.5 -506s70.833 -90 139.5 -90c64 0 108.667 23.5 134 70.5s38 133.833 38 260.5v21zM321.001 -319c63.333 -10.667 110.167 -17.834 140.5 -21.501
s54.5 -5.5 72.5 -5.5c29.333 0 51 5.83301 65 17.5s21 29.834 21 54.501c0 20.667 -8.33301 36 -25 46s-43 15 -79 15h-23v213h115v-83c65.333 -6 115.166 -25.5 149.499 -58.5s51.5 -77.833 51.5 -134.5c0 -66.667 -22.167 -118.167 -66.5 -154.5
s-106.833 -54.5 -187.5 -54.5c-28 0 -60.667 2.16699 -98 6.5s-82.666 11.5 -135.999 21.5v138z" />
    <glyph glyph-name="Egrave" unicode="&#xc8;" horiz-adv-x="1014" 
d="M131 0v1540h791v-256h-506v-356h471v-244h-471v-424h518v-260h-803zM659 1669h-125l-305 285h256z" />
    <glyph glyph-name="Eacute" unicode="&#xc9;" horiz-adv-x="1014" 
d="M131 0v1540h791v-256h-506v-356h471v-244h-471v-424h518v-260h-803zM377 1669l174 285h256l-305 -285h-125z" />
    <glyph glyph-name="Ecircumflex" unicode="&#xca;" horiz-adv-x="1014" 
d="M131 0v1540h791v-256h-506v-356h471v-244h-471v-424h518v-260h-803zM242 1669l174 285h204l174 -285h-124l-152 150l-152 -150h-124z" />
    <glyph glyph-name="Edieresis" unicode="&#xcb;" horiz-adv-x="1014" 
d="M131 0v1540h791v-256h-506v-356h471v-244h-471v-424h518v-260h-803zM579 1692v237h220v-237h-220zM237 1692v237h220v-237h-220z" />
    <glyph glyph-name="Igrave" unicode="&#xcc;" horiz-adv-x="549" 
d="M131 0v1540h287v-1540h-287zM415 1669h-125l-305 285h256z" />
    <glyph glyph-name="Iacute" unicode="&#xcd;" horiz-adv-x="549" 
d="M131 0v1540h287v-1540h-287zM133 1669l174 285h256l-305 -285h-125z" />
    <glyph glyph-name="Icircumflex" unicode="&#xce;" horiz-adv-x="549" 
d="M131 0v1540h287v-1540h-287zM-2 1669l174 285h204l174 -285h-124l-152 150l-152 -150h-124z" />
    <glyph glyph-name="Idieresis" unicode="&#xcf;" horiz-adv-x="549" 
d="M131 0v1540h287v-1540h-287zM335 1692v237h220v-237h-220zM-7 1692v237h220v-237h-220z" />
    <glyph glyph-name="Eth" unicode="&#xd0;" horiz-adv-x="1208" 
d="M135 0v714.998h-143v205h143v620h461c94 0 168.833 -8 224.5 -24s101.5 -42 137.5 -78c54.667 -53.333 93.334 -120.666 116.001 -201.999s34 -205.333 34 -372c0 -213.333 -7.83301 -366.166 -23.5 -458.499s-41.834 -170.833 -78.501 -235.5
c-36 -63.333 -85.5 -107.5 -148.5 -132.5s-172.167 -37.5 -327.5 -37.5h-395zM416 226.998l129.001 -0.000976562c64.667 0 109.667 4.66699 135 14s45.666 25.333 60.999 48c26.667 40 45.667 94.833 57 164.5s17 181.167 17 334.5c0 152.667 -6.5 262.334 -19.5 329.001
s-35.167 117 -66.5 151c-16 17.333 -37.333 29.5 -64 36.5s-68 10.5 -124 10.5h-125v-395h231v-205h-231v-488z" />
    <glyph glyph-name="Ntilde" unicode="&#xd1;" horiz-adv-x="1221" 
d="M131 0v1540h295l401 -1077l-8 1077h271v-1540h-293l-404 1079l8 -1079h-270zM417 1681l-88.001 -0.000976562c13.333 77.333 35 135.333 65 174s68 58 114 58c10 0 20.167 -0.666992 30.5 -2s20.5 -3.33301 30.5 -6l110 -33c7.33301 -2 15 -3.5 23 -4.5
s16.333 -1.5 25 -1.5c20 0 36.333 6.33301 49 19s21.667 31.334 27 56.001h88c-11.333 -74.667 -33.333 -132.834 -66 -174.501s-73 -62.5 -121 -62.5c-9.33301 0 -18 0.666992 -26 2s-16.333 3.33301 -25 6l-121 35c-5.33301 2 -10.666 3.5 -15.999 4.5s-11 1.5 -17 1.5
c-21.333 0 -39 -6.16699 -53 -18.5s-23.667 -30.166 -29 -53.499z" />
    <glyph glyph-name="Ograve" unicode="&#xd2;" horiz-adv-x="1202" 
d="M393 770c0 -253.333 14.8311 -412.833 44.498 -478.5s84.5 -98.5 164.5 -98.5c78.667 0 132.5 32.167 161.5 96.5s43.5 224.5 43.5 480.5s-14.667 416.667 -44 482s-83.666 98 -162.999 98s-133.666 -32.667 -162.999 -98s-44 -226 -44 -482zM99.998 770
c0 163.333 7.66699 293.834 23 391.501s39.333 171.167 72 220.5c44.667 70 98 120 160 150s143.667 45 245 45s183 -15 245 -45s115.667 -80 161 -150c32.667 -50.667 56.5 -124.667 71.5 -222s22.5 -227.333 22.5 -390c0 -162 -7.66699 -291.833 -23 -389.5
s-39 -171.834 -71 -222.501c-45.333 -70 -99 -120 -161 -150s-143.667 -45 -245 -45s-183 15 -245 45s-115.333 80 -160 150c-32.667 49.333 -56.667 122.833 -72 220.5s-23 228.167 -23 391.5zM742.998 1669h-125l-305 285h256z" />
    <glyph glyph-name="Oacute" unicode="&#xd3;" horiz-adv-x="1202" 
d="M393 770c0 -253.333 14.8311 -412.833 44.498 -478.5s84.5 -98.5 164.5 -98.5c78.667 0 132.5 32.167 161.5 96.5s43.5 224.5 43.5 480.5s-14.667 416.667 -44 482s-83.666 98 -162.999 98s-133.666 -32.667 -162.999 -98s-44 -226 -44 -482zM99.998 770
c0 163.333 7.66699 293.834 23 391.501s39.333 171.167 72 220.5c44.667 70 98 120 160 150s143.667 45 245 45s183 -15 245 -45s115.667 -80 161 -150c32.667 -50.667 56.5 -124.667 71.5 -222s22.5 -227.333 22.5 -390c0 -162 -7.66699 -291.833 -23 -389.5
s-39 -171.834 -71 -222.501c-45.333 -70 -99 -120 -161 -150s-143.667 -45 -245 -45s-183 15 -245 45s-115.333 80 -160 150c-32.667 49.333 -56.667 122.833 -72 220.5s-23 228.167 -23 391.5zM460.998 1669l174 285h256l-305 -285h-125z" />
    <glyph glyph-name="Ocircumflex" unicode="&#xd4;" horiz-adv-x="1202" 
d="M393 770c0 -253.333 14.8311 -412.833 44.498 -478.5s84.5 -98.5 164.5 -98.5c78.667 0 132.5 32.167 161.5 96.5s43.5 224.5 43.5 480.5s-14.667 416.667 -44 482s-83.666 98 -162.999 98s-133.666 -32.667 -162.999 -98s-44 -226 -44 -482zM99.998 770
c0 163.333 7.66699 293.834 23 391.501s39.333 171.167 72 220.5c44.667 70 98 120 160 150s143.667 45 245 45s183 -15 245 -45s115.667 -80 161 -150c32.667 -50.667 56.5 -124.667 71.5 -222s22.5 -227.333 22.5 -390c0 -162 -7.66699 -291.833 -23 -389.5
s-39 -171.834 -71 -222.501c-45.333 -70 -99 -120 -161 -150s-143.667 -45 -245 -45s-183 15 -245 45s-115.333 80 -160 150c-32.667 49.333 -56.667 122.833 -72 220.5s-23 228.167 -23 391.5zM325.998 1669l174 285h204l174 -285h-124l-152 150l-152 -150h-124z" />
    <glyph glyph-name="Otilde" unicode="&#xd5;" horiz-adv-x="1202" 
d="M393 770c0 -253.333 14.8311 -412.833 44.498 -478.5s84.5 -98.5 164.5 -98.5c78.667 0 132.5 32.167 161.5 96.5s43.5 224.5 43.5 480.5s-14.667 416.667 -44 482s-83.666 98 -162.999 98s-133.666 -32.667 -162.999 -98s-44 -226 -44 -482zM99.998 770
c0 163.333 7.66699 293.834 23 391.501s39.333 171.167 72 220.5c44.667 70 98 120 160 150s143.667 45 245 45s183 -15 245 -45s115.667 -80 161 -150c32.667 -50.667 56.5 -124.667 71.5 -222s22.5 -227.333 22.5 -390c0 -162 -7.66699 -291.833 -23 -389.5
s-39 -171.834 -71 -222.501c-45.333 -70 -99 -120 -161 -150s-143.667 -45 -245 -45s-183 15 -245 45s-115.333 80 -160 150c-32.667 49.333 -56.667 122.833 -72 220.5s-23 228.167 -23 391.5zM408.998 1681l-88.001 -0.000976562c13.333 77.333 35 135.333 65 174
s68 58 114 58c10 0 20.167 -0.666992 30.5 -2s20.5 -3.33301 30.5 -6l110 -33c7.33301 -2 15 -3.5 23 -4.5s16.333 -1.5 25 -1.5c20 0 36.333 6.33301 49 19s21.667 31.334 27 56.001h88c-11.333 -74.667 -33.333 -132.834 -66 -174.501s-73 -62.5 -121 -62.5
c-9.33301 0 -18 0.666992 -26 2s-16.333 3.33301 -25 6l-121 35c-5.33301 2 -10.666 3.5 -15.999 4.5s-11 1.5 -17 1.5c-21.333 0 -39 -6.16699 -53 -18.5s-23.667 -30.166 -29 -53.499z" />
    <glyph glyph-name="Odieresis" unicode="&#xd6;" horiz-adv-x="1202" 
d="M393 770c0 -253.333 14.8311 -412.833 44.498 -478.5s84.5 -98.5 164.5 -98.5c78.667 0 132.5 32.167 161.5 96.5s43.5 224.5 43.5 480.5s-14.667 416.667 -44 482s-83.666 98 -162.999 98s-133.666 -32.667 -162.999 -98s-44 -226 -44 -482zM99.998 770
c0 163.333 7.66699 293.834 23 391.501s39.333 171.167 72 220.5c44.667 70 98 120 160 150s143.667 45 245 45s183 -15 245 -45s115.667 -80 161 -150c32.667 -50.667 56.5 -124.667 71.5 -222s22.5 -227.333 22.5 -390c0 -162 -7.66699 -291.833 -23 -389.5
s-39 -171.834 -71 -222.501c-45.333 -70 -99 -120 -161 -150s-143.667 -45 -245 -45s-183 15 -245 45s-115.333 80 -160 150c-32.667 49.333 -56.667 122.833 -72 220.5s-23 228.167 -23 391.5zM662.998 1692v237h220v-237h-220zM320.998 1692v237h220v-237h-220z" />
    <glyph glyph-name="multiply" unicode="&#xd7;" horiz-adv-x="1706" 
d="M416 1202l450 -450l451 450l141 -139l-450 -453l450 -450l-141 -140l-451 451l-450 -451l-140 140l451 450l-451 453z" />
    <glyph glyph-name="Oslash" unicode="&#xd8;" horiz-adv-x="1202" 
d="M397 551l389.001 627c-4.66699 58 -21.834 101.167 -51.501 129.5s-72.5 42.5 -128.5 42.5c-82 0 -138 -32.667 -168 -98s-45 -240.333 -45 -525c0 -20 0.333008 -42.167 1 -66.5zM805.001 961l-385 -623c7.33301 -50.667 24.333 -87.5 51 -110.5s65.667 -34.5 117 -34.5
c85.333 0 143.5 31.667 174.5 95s46.5 207.666 46.5 432.999c0 66 -0.333008 115.333 -1 148s-1.66699 63.334 -3 92.001zM170.001 207c-24 60.667 -41.666 136.501 -52.999 227.501s-17 203.5 -17 337.5c0 158.667 8.16699 289.834 24.5 393.501
s41.166 180.167 74.499 229.5c42 62.667 94.833 108.667 158.5 138s143.167 44 238.5 44c78.667 0 146.667 -9.66699 204 -29s106.666 -49.333 147.999 -90l82 137l131 -84l-117 -194c20 -63.333 35 -143.5 45 -240.5s15 -210.167 15 -339.5
c0 -152.667 -8.83301 -277.834 -26.5 -375.501s-45.167 -173.834 -82.5 -228.501c-42 -61.333 -92.667 -105 -152 -131s-141.666 -39 -246.999 -39c-76 0 -140 8.16699 -192 24.5s-98 42.5 -138 78.5l-100 -160l-129 82z" />
    <glyph glyph-name="Ugrave" unicode="&#xd9;" horiz-adv-x="1223" 
d="M131 1540l287.001 -0.000976562v-1038c0 -118.667 14.5 -199.167 43.5 -241.5s80.5 -63.5 154.5 -63.5c73.333 0 124.166 21.333 152.499 64s42.5 124.334 42.5 245.001v1034h283v-1063c0 -103.333 -5.83301 -178.833 -17.5 -226.5s-31.167 -89.5 -58.5 -125.5
c-41.333 -54 -96 -94.5 -164 -121.5s-148.667 -40.5 -242 -40.5c-176 0 -300.167 38.167 -372.5 114.5s-108.5 209.5 -108.5 399.5v1063zM753.001 1669h-125l-305 285h256z" />
    <glyph glyph-name="Uacute" unicode="&#xda;" horiz-adv-x="1223" 
d="M131 1540l287.001 -0.000976562v-1038c0 -118.667 14.5 -199.167 43.5 -241.5s80.5 -63.5 154.5 -63.5c73.333 0 124.166 21.333 152.499 64s42.5 124.334 42.5 245.001v1034h283v-1063c0 -103.333 -5.83301 -178.833 -17.5 -226.5s-31.167 -89.5 -58.5 -125.5
c-41.333 -54 -96 -94.5 -164 -121.5s-148.667 -40.5 -242 -40.5c-176 0 -300.167 38.167 -372.5 114.5s-108.5 209.5 -108.5 399.5v1063zM471.001 1669l174 285h256l-305 -285h-125z" />
    <glyph glyph-name="Ucircumflex" unicode="&#xdb;" horiz-adv-x="1223" 
d="M131 1540l287.001 -0.000976562v-1038c0 -118.667 14.5 -199.167 43.5 -241.5s80.5 -63.5 154.5 -63.5c73.333 0 124.166 21.333 152.499 64s42.5 124.334 42.5 245.001v1034h283v-1063c0 -103.333 -5.83301 -178.833 -17.5 -226.5s-31.167 -89.5 -58.5 -125.5
c-41.333 -54 -96 -94.5 -164 -121.5s-148.667 -40.5 -242 -40.5c-176 0 -300.167 38.167 -372.5 114.5s-108.5 209.5 -108.5 399.5v1063zM336.001 1669l174 285h204l174 -285h-124l-152 150l-152 -150h-124z" />
    <glyph glyph-name="Udieresis" unicode="&#xdc;" horiz-adv-x="1223" 
d="M131 1540l287.001 -0.000976562v-1038c0 -118.667 14.5 -199.167 43.5 -241.5s80.5 -63.5 154.5 -63.5c73.333 0 124.166 21.333 152.499 64s42.5 124.334 42.5 245.001v1034h283v-1063c0 -103.333 -5.83301 -178.833 -17.5 -226.5s-31.167 -89.5 -58.5 -125.5
c-41.333 -54 -96 -94.5 -164 -121.5s-148.667 -40.5 -242 -40.5c-176 0 -300.167 38.167 -372.5 114.5s-108.5 209.5 -108.5 399.5v1063zM673.001 1692v237h220v-237h-220zM331.001 1692v237h220v-237h-220z" />
    <glyph glyph-name="Yacute" unicode="&#xdd;" horiz-adv-x="1126" 
d="M422 0v653l-404 887h318l233 -579l230 579h309l-397 -887v-653h-289zM422 1669l174 285h256l-305 -285h-125z" />
    <glyph glyph-name="Thorn" unicode="&#xde;" horiz-adv-x="1116" 
d="M408 1047v-457h120c90 0 152.833 17 188.5 51s53.5 93.333 53.5 178c0 86 -16.5 145.5 -49.5 178.5s-95.833 49.5 -188.5 49.5h-124zM131 1540l284.999 0.000976562v-276h213c150.667 0 259.667 -33.833 327 -101.5s101 -176.5 101 -326.5
c0 -156.667 -35.167 -272.334 -105.5 -347.001s-179.166 -112 -326.499 -112h-209v-377h-285v1540z" />
    <glyph glyph-name="germandbls" unicode="&#xdf;" horiz-adv-x="995" 
d="M117 0v1090c0 162.667 28.667 279.334 86 350.001s151.333 106 282 106c125.333 0 220.833 -31.833 286.5 -95.5s98.5 -155.167 98.5 -274.5c0 -76 -12 -138.833 -36 -188.5s-59.667 -85.167 -107 -106.5c62.667 -28 108 -75.333 136 -142s42 -162 42 -286
c0 -160 -24.167 -277.833 -72.5 -353.5s-123.166 -113.5 -224.499 -113.5c-28 0 -52.833 2.16699 -74.5 6.5s-41.167 11.166 -58.5 20.499v199c14.667 -6.66699 26.834 -11.5 36.501 -14.5s18.834 -4.5 27.501 -4.5c37.333 0 63.333 18.667 78 56s22 113.333 22 228
c0 116.667 -10 195.334 -30 236.001s-55.667 61 -107 61h-15l1 184c2.66699 -0.666992 5.66699 -1.16699 9 -1.5s7.66602 -0.5 12.999 -0.5c37.333 0 64 14.667 80 44s24 78.333 24 147c0 70 -9.33301 120.167 -28 150.5s-49.334 45.5 -92.001 45.5
s-72.834 -15.333 -90.501 -46s-26.5 -84 -26.5 -160v-1137h-260z" />
    <glyph glyph-name="agrave" unicode="&#xe0;" horiz-adv-x="993" 
d="M627 606c-100.667 -50.667 -168.833 -96.001 -204.5 -136.001s-53.5 -87.333 -53.5 -142c0 -51.333 9.5 -89.166 28.5 -113.499s48.833 -36.5 89.5 -36.5c46.667 0 81.667 20.333 105 61s35 101.667 35 183v184zM664.001 -0.000976562
c-6 8.66699 -11.1699 21.6689 -15.5029 39.002s-8.83301 41.666 -13.5 72.999c-28 -46.667 -64.167 -82.167 -108.5 -106.5s-96.166 -36.5 -155.499 -36.5c-88 0 -156.5 29.667 -205.5 89s-73.5 141.666 -73.5 246.999c0 95.333 21.5 171.166 64.5 227.499
s128.167 112.833 255.5 169.5c12.667 6 30.667 14 54 24c104.667 44.667 157 97 157 157c0 36.667 -10.167 64.834 -30.5 84.501s-49.833 29.5 -88.5 29.5c-48.667 0 -84.5 -13 -107.5 -39s-34.5 -66.667 -34.5 -122v-23h-260c0 130 31.833 224.667 95.5 284
s165.834 89 306.501 89s239.334 -27.167 296.001 -81.5s85 -149.5 85 -285.5v-653c0 -32 3 -61.167 9 -87.5s16 -52.5 30 -78.5h-260zM638.998 1280h-125l-305 285h256z" />
    <glyph glyph-name="aacute" unicode="&#xe1;" horiz-adv-x="993" 
d="M627 606c-100.667 -50.667 -168.833 -96.001 -204.5 -136.001s-53.5 -87.333 -53.5 -142c0 -51.333 9.5 -89.166 28.5 -113.499s48.833 -36.5 89.5 -36.5c46.667 0 81.667 20.333 105 61s35 101.667 35 183v184zM664.001 -0.000976562
c-6 8.66699 -11.1699 21.6689 -15.5029 39.002s-8.83301 41.666 -13.5 72.999c-28 -46.667 -64.167 -82.167 -108.5 -106.5s-96.166 -36.5 -155.499 -36.5c-88 0 -156.5 29.667 -205.5 89s-73.5 141.666 -73.5 246.999c0 95.333 21.5 171.166 64.5 227.499
s128.167 112.833 255.5 169.5c12.667 6 30.667 14 54 24c104.667 44.667 157 97 157 157c0 36.667 -10.167 64.834 -30.5 84.501s-49.833 29.5 -88.5 29.5c-48.667 0 -84.5 -13 -107.5 -39s-34.5 -66.667 -34.5 -122v-23h-260c0 130 31.833 224.667 95.5 284
s165.834 89 306.501 89s239.334 -27.167 296.001 -81.5s85 -149.5 85 -285.5v-653c0 -32 3 -61.167 9 -87.5s16 -52.5 30 -78.5h-260zM356.998 1280l174 285h256l-305 -285h-125z" />
    <glyph glyph-name="acircumflex" unicode="&#xe2;" horiz-adv-x="993" 
d="M627 606c-100.667 -50.667 -168.833 -96.001 -204.5 -136.001s-53.5 -87.333 -53.5 -142c0 -51.333 9.5 -89.166 28.5 -113.499s48.833 -36.5 89.5 -36.5c46.667 0 81.667 20.333 105 61s35 101.667 35 183v184zM664.001 -0.000976562
c-6 8.66699 -11.1699 21.6689 -15.5029 39.002s-8.83301 41.666 -13.5 72.999c-28 -46.667 -64.167 -82.167 -108.5 -106.5s-96.166 -36.5 -155.499 -36.5c-88 0 -156.5 29.667 -205.5 89s-73.5 141.666 -73.5 246.999c0 95.333 21.5 171.166 64.5 227.499
s128.167 112.833 255.5 169.5c12.667 6 30.667 14 54 24c104.667 44.667 157 97 157 157c0 36.667 -10.167 64.834 -30.5 84.501s-49.833 29.5 -88.5 29.5c-48.667 0 -84.5 -13 -107.5 -39s-34.5 -66.667 -34.5 -122v-23h-260c0 130 31.833 224.667 95.5 284
s165.834 89 306.501 89s239.334 -27.167 296.001 -81.5s85 -149.5 85 -285.5v-653c0 -32 3 -61.167 9 -87.5s16 -52.5 30 -78.5h-260zM221.998 1280l174 285h204l174 -285h-124l-152 150l-152 -150h-124z" />
    <glyph glyph-name="atilde" unicode="&#xe3;" horiz-adv-x="993" 
d="M627 606c-100.667 -50.667 -168.833 -96.001 -204.5 -136.001s-53.5 -87.333 -53.5 -142c0 -51.333 9.5 -89.166 28.5 -113.499s48.833 -36.5 89.5 -36.5c46.667 0 81.667 20.333 105 61s35 101.667 35 183v184zM664.001 -0.000976562
c-6 8.66699 -11.1699 21.6689 -15.5029 39.002s-8.83301 41.666 -13.5 72.999c-28 -46.667 -64.167 -82.167 -108.5 -106.5s-96.166 -36.5 -155.499 -36.5c-88 0 -156.5 29.667 -205.5 89s-73.5 141.666 -73.5 246.999c0 95.333 21.5 171.166 64.5 227.499
s128.167 112.833 255.5 169.5c12.667 6 30.667 14 54 24c104.667 44.667 157 97 157 157c0 36.667 -10.167 64.834 -30.5 84.501s-49.833 29.5 -88.5 29.5c-48.667 0 -84.5 -13 -107.5 -39s-34.5 -66.667 -34.5 -122v-23h-260c0 130 31.833 224.667 95.5 284
s165.834 89 306.501 89s239.334 -27.167 296.001 -81.5s85 -149.5 85 -285.5v-653c0 -32 3 -61.167 9 -87.5s16 -52.5 30 -78.5h-260zM304.998 1292l-88.001 -0.000976562c13.333 77.333 35 135.333 65 174s68 58 114 58c10 0 20.167 -0.666992 30.5 -2
s20.5 -3.33301 30.5 -6l110 -33c7.33301 -2 15 -3.5 23 -4.5s16.333 -1.5 25 -1.5c20 0 36.333 6.33301 49 19s21.667 31.334 27 56.001h88c-11.333 -74.667 -33.333 -132.834 -66 -174.501s-73 -62.5 -121 -62.5c-9.33301 0 -18 0.666992 -26 2s-16.333 3.33301 -25 6
l-121 35c-5.33301 2 -10.666 3.5 -15.999 4.5s-11 1.5 -17 1.5c-21.333 0 -39 -6.16699 -53 -18.5s-23.667 -30.166 -29 -53.499z" />
    <glyph glyph-name="adieresis" unicode="&#xe4;" horiz-adv-x="993" 
d="M627 606c-100.667 -50.667 -168.833 -96.001 -204.5 -136.001s-53.5 -87.333 -53.5 -142c0 -51.333 9.5 -89.166 28.5 -113.499s48.833 -36.5 89.5 -36.5c46.667 0 81.667 20.333 105 61s35 101.667 35 183v184zM664.001 -0.000976562
c-6 8.66699 -11.1699 21.6689 -15.5029 39.002s-8.83301 41.666 -13.5 72.999c-28 -46.667 -64.167 -82.167 -108.5 -106.5s-96.166 -36.5 -155.499 -36.5c-88 0 -156.5 29.667 -205.5 89s-73.5 141.666 -73.5 246.999c0 95.333 21.5 171.166 64.5 227.499
s128.167 112.833 255.5 169.5c12.667 6 30.667 14 54 24c104.667 44.667 157 97 157 157c0 36.667 -10.167 64.834 -30.5 84.501s-49.833 29.5 -88.5 29.5c-48.667 0 -84.5 -13 -107.5 -39s-34.5 -66.667 -34.5 -122v-23h-260c0 130 31.833 224.667 95.5 284
s165.834 89 306.501 89s239.334 -27.167 296.001 -81.5s85 -149.5 85 -285.5v-653c0 -32 3 -61.167 9 -87.5s16 -52.5 30 -78.5h-260zM558.998 1303v237h220v-237h-220zM216.998 1303v237h220v-237h-220z" />
    <glyph glyph-name="aring" unicode="&#xe5;" horiz-adv-x="993" 
d="M627 606c-100.667 -50.667 -168.833 -96.001 -204.5 -136.001s-53.5 -87.333 -53.5 -142c0 -51.333 9.5 -89.166 28.5 -113.499s48.833 -36.5 89.5 -36.5c46.667 0 81.667 20.333 105 61s35 101.667 35 183v184zM664.001 -0.000976562
c-6 8.66699 -11.1699 21.6689 -15.5029 39.002s-8.83301 41.666 -13.5 72.999c-28 -46.667 -64.167 -82.167 -108.5 -106.5s-96.166 -36.5 -155.499 -36.5c-88 0 -156.5 29.667 -205.5 89s-73.5 141.666 -73.5 246.999c0 95.333 21.5 171.166 64.5 227.499
s128.167 112.833 255.5 169.5c12.667 6 30.667 14 54 24c104.667 44.667 157 97 157 157c0 36.667 -10.167 64.834 -30.5 84.501s-49.833 29.5 -88.5 29.5c-48.667 0 -84.5 -13 -107.5 -39s-34.5 -66.667 -34.5 -122v-23h-260c0 130 31.833 224.667 95.5 284
s165.834 89 306.501 89s239.334 -27.167 296.001 -81.5s85 -149.5 85 -285.5v-653c0 -32 3 -61.167 9 -87.5s16 -52.5 30 -78.5h-260zM445.998 1444c0 -21.333 8 -40.001 24 -56.001s34.667 -24 56 -24c22 0 40.833 7.83301 56.5 23.5s23.5 34.5 23.5 56.5
s-7.66699 40.5 -23 55.5s-34.333 22.5 -57 22.5c-22 0 -40.833 -7.66699 -56.5 -23s-23.5 -33.666 -23.5 -54.999zM327.998 1444c0 55.333 19.333 102.666 58 141.999s85.334 59 140.001 59c55.333 0 102.666 -19.667 141.999 -59s59 -86.666 59 -141.999
s-19.667 -102.666 -59 -141.999s-86.666 -59 -141.999 -59c-54.667 0 -101.334 19.667 -140.001 59s-58 86.666 -58 141.999z" />
    <glyph glyph-name="ae" unicode="&#xe6;" horiz-adv-x="1450" 
d="M614 604l-37 -23c-144.667 -88.667 -217 -176 -217 -262c0 -47.333 10.5 -84.333 31.5 -111s49.5 -40 85.5 -40c50.667 0 86.167 18.167 106.5 54.5s30.5 104.833 30.5 205.5v176zM874 725l249.999 -0.000976562v33c0 84.667 -9.66699 143.667 -29 177
s-52.666 50 -99.999 50c-42 0 -72.667 -17.167 -92 -51.5s-29 -90.166 -29 -167.499v-41zM724.999 87.999c-31.333 -40.667 -71.0029 -71 -119.003 -91s-106.667 -30 -176 -30c-112.667 0 -196.834 28.333 -252.501 85s-83.5 142.334 -83.5 257.001
c0 86.667 18.833 158.334 56.5 215.001s98.167 104 181.5 142l88 38c128 54.667 192 112.334 192 173.001c0 40.667 -11 71.167 -33 91.5s-55.333 30.5 -100 30.5c-42 0 -74.333 -14.333 -97 -43s-34 -69.334 -34 -122.001v-15h-250v21c0 115.333 32.5 202.166 97.5 260.499
s161.5 87.5 289.5 87.5c65.333 0 121 -6.33301 167 -19s84.667 -32.334 116 -59.001c24.667 26 56.334 45.5 95.001 58.5s83.334 19.5 134.001 19.5c133.333 0 229.5 -41.167 288.5 -123.5s88.5 -217.5 88.5 -405.5c0 -12.667 -0.166992 -27 -0.5 -43s-1.5 -41 -3.5 -75
h-496v-84c0 -116.667 9.16699 -194 27.5 -232s51.5 -57 99.5 -57c40.667 0 70.334 17 89.001 51s28 88.667 28 164v14h248v-32c0 -133.333 -30 -233 -90 -299s-150.667 -99 -272 -99c-63.333 0 -117.666 9.83301 -162.999 29.5s-84 50.167 -116 91.5z" />
    <glyph glyph-name="ccedilla" unicode="&#xe7;" horiz-adv-x="930" 
d="M846 454c0.666992 -8 1.16602 -16.502 1.49902 -25.502s0.5 -22.167 0.5 -39.5c0 -143.333 -30.5 -249.166 -91.5 -317.499s-155.5 -102.5 -283.5 -102.5c-145.333 0 -246.833 43 -304.5 129s-86.5 246 -86.5 480c0 233.333 28.833 393.333 86.5 480
s159.167 130 304.5 130c127.333 0 221.333 -31.667 282 -95s91 -161.333 91 -294v-41h-256v26c0 70 -9 120.333 -27 151s-47.333 46 -88 46c-41.333 0 -71.166 -15 -89.499 -45s-27.5 -80 -27.5 -150v-399c0 -79.333 8.66699 -134.666 26 -165.999s47 -47 89 -47
c45.333 0 76.833 18 94.5 54s26.5 103.333 26.5 202v25zM224.999 -319.002c63.333 -10.667 110.167 -17.834 140.5 -21.501s54.5 -5.5 72.5 -5.5c29.333 0 51 5.83301 65 17.5s21 29.834 21 54.501c0 20.667 -8.33301 36 -25 46s-43 15 -79 15h-23v213h115v-83
c65.333 -6 115.166 -25.5 149.499 -58.5s51.5 -77.833 51.5 -134.5c0 -66.667 -22.167 -118.167 -66.5 -154.5s-106.833 -54.5 -187.5 -54.5c-28 0 -60.667 2.16699 -98 6.5s-82.666 11.5 -135.999 21.5v138z" />
    <glyph glyph-name="egrave" unicode="&#xe8;" horiz-adv-x="975" 
d="M358 725h260v49c0 79.333 -9.66699 134 -29 164s-53.333 45 -102 45c-47.333 0 -81 -15.5 -101 -46.5s-30 -85.167 -30 -162.5l1 -16.5c0.666992 -11 1 -21.833 1 -32.5zM627 397l251.999 -0.000976562c0 -5.33301 0.333008 -13 1 -23s1 -17.333 1 -22
c0 -132 -31.5 -228.833 -94.5 -290.5s-162.833 -92.5 -299.5 -92.5c-72 0 -132.333 9 -181 27s-88.667 46 -120 84c-37.333 44.667 -63.666 101 -78.999 169s-23 190.333 -23 367c0 140.667 6.66699 241.334 20 302.001s36 110.334 68 149.001
c33.333 40 76.833 70.167 130.5 90.5s117.5 30.5 191.5 30.5c71.333 0 132.833 -10.833 184.5 -32.5s94.5 -54.5 128.5 -98.5c28.667 -38.667 49.167 -87.167 61.5 -145.5s18.5 -152.5 18.5 -282.5v-88h-526c-1.33301 -8.66699 -2.16602 -17.834 -2.49902 -27.501
s-0.5 -25.167 -0.5 -46.5c0 -110 10.167 -187 30.5 -231s54.833 -66 103.5 -66c47.333 0 81.666 17.833 102.999 53.5s32 93.5 32 173.5zM627.999 1280h-125l-305 285h256z" />
    <glyph glyph-name="eacute" unicode="&#xe9;" horiz-adv-x="975" 
d="M358 725h260v49c0 79.333 -9.66699 134 -29 164s-53.333 45 -102 45c-47.333 0 -81 -15.5 -101 -46.5s-30 -85.167 -30 -162.5l1 -16.5c0.666992 -11 1 -21.833 1 -32.5zM627 397l251.999 -0.000976562c0 -5.33301 0.333008 -13 1 -23s1 -17.333 1 -22
c0 -132 -31.5 -228.833 -94.5 -290.5s-162.833 -92.5 -299.5 -92.5c-72 0 -132.333 9 -181 27s-88.667 46 -120 84c-37.333 44.667 -63.666 101 -78.999 169s-23 190.333 -23 367c0 140.667 6.66699 241.334 20 302.001s36 110.334 68 149.001
c33.333 40 76.833 70.167 130.5 90.5s117.5 30.5 191.5 30.5c71.333 0 132.833 -10.833 184.5 -32.5s94.5 -54.5 128.5 -98.5c28.667 -38.667 49.167 -87.167 61.5 -145.5s18.5 -152.5 18.5 -282.5v-88h-526c-1.33301 -8.66699 -2.16602 -17.834 -2.49902 -27.501
s-0.5 -25.167 -0.5 -46.5c0 -110 10.167 -187 30.5 -231s54.833 -66 103.5 -66c47.333 0 81.666 17.833 102.999 53.5s32 93.5 32 173.5zM345.999 1280l174 285h256l-305 -285h-125z" />
    <glyph glyph-name="ecircumflex" unicode="&#xea;" horiz-adv-x="975" 
d="M358 725h260v49c0 79.333 -9.66699 134 -29 164s-53.333 45 -102 45c-47.333 0 -81 -15.5 -101 -46.5s-30 -85.167 -30 -162.5l1 -16.5c0.666992 -11 1 -21.833 1 -32.5zM627 397l251.999 -0.000976562c0 -5.33301 0.333008 -13 1 -23s1 -17.333 1 -22
c0 -132 -31.5 -228.833 -94.5 -290.5s-162.833 -92.5 -299.5 -92.5c-72 0 -132.333 9 -181 27s-88.667 46 -120 84c-37.333 44.667 -63.666 101 -78.999 169s-23 190.333 -23 367c0 140.667 6.66699 241.334 20 302.001s36 110.334 68 149.001
c33.333 40 76.833 70.167 130.5 90.5s117.5 30.5 191.5 30.5c71.333 0 132.833 -10.833 184.5 -32.5s94.5 -54.5 128.5 -98.5c28.667 -38.667 49.167 -87.167 61.5 -145.5s18.5 -152.5 18.5 -282.5v-88h-526c-1.33301 -8.66699 -2.16602 -17.834 -2.49902 -27.501
s-0.5 -25.167 -0.5 -46.5c0 -110 10.167 -187 30.5 -231s54.833 -66 103.5 -66c47.333 0 81.666 17.833 102.999 53.5s32 93.5 32 173.5zM210.999 1280l174 285h204l174 -285h-124l-152 150l-152 -150h-124z" />
    <glyph glyph-name="edieresis" unicode="&#xeb;" horiz-adv-x="975" 
d="M358 725h260v49c0 79.333 -9.66699 134 -29 164s-53.333 45 -102 45c-47.333 0 -81 -15.5 -101 -46.5s-30 -85.167 -30 -162.5l1 -16.5c0.666992 -11 1 -21.833 1 -32.5zM627 397l251.999 -0.000976562c0 -5.33301 0.333008 -13 1 -23s1 -17.333 1 -22
c0 -132 -31.5 -228.833 -94.5 -290.5s-162.833 -92.5 -299.5 -92.5c-72 0 -132.333 9 -181 27s-88.667 46 -120 84c-37.333 44.667 -63.666 101 -78.999 169s-23 190.333 -23 367c0 140.667 6.66699 241.334 20 302.001s36 110.334 68 149.001
c33.333 40 76.833 70.167 130.5 90.5s117.5 30.5 191.5 30.5c71.333 0 132.833 -10.833 184.5 -32.5s94.5 -54.5 128.5 -98.5c28.667 -38.667 49.167 -87.167 61.5 -145.5s18.5 -152.5 18.5 -282.5v-88h-526c-1.33301 -8.66699 -2.16602 -17.834 -2.49902 -27.501
s-0.5 -25.167 -0.5 -46.5c0 -110 10.167 -187 30.5 -231s54.833 -66 103.5 -66c47.333 0 81.666 17.833 102.999 53.5s32 93.5 32 173.5zM547.999 1303v237h220v-237h-220zM205.999 1303v237h220v-237h-220z" />
    <glyph glyph-name="igrave" unicode="&#xec;" horiz-adv-x="496" 
d="M115 0v1157h266v-1157h-266zM389 1280h-125l-305 285h256z" />
    <glyph glyph-name="iacute" unicode="&#xed;" horiz-adv-x="496" 
d="M115 0v1157h266v-1157h-266zM107 1280l174 285h256l-305 -285h-125z" />
    <glyph glyph-name="icircumflex" unicode="&#xee;" horiz-adv-x="496" 
d="M115 0v1157h266v-1157h-266zM-28 1280l174 285h204l174 -285h-124l-152 150l-152 -150h-124z" />
    <glyph glyph-name="idieresis" unicode="&#xef;" horiz-adv-x="496" 
d="M115 0v1157h266v-1157h-266zM309 1303v237h220v-237h-220zM-33 1303v237h220v-237h-220z" />
    <glyph glyph-name="eth" unicode="&#xf0;" horiz-adv-x="979" 
d="M356 586v-49.0029c0 -165.333 9 -267.166 27 -305.499s52.667 -57.5 104 -57.5c53.333 0 89.333 18.833 108 56.5s28 143.834 28 318.501v78c0 134 -9.5 218.667 -28.5 254s-54.167 53 -105.5 53c-50.667 0 -85.5 -17.167 -104.5 -51.5s-28.5 -120.166 -28.5 -257.499
v-39zM555 1065c-25.333 38 -50.835 71.001 -76.502 99.001s-51.5 51 -77.5 69l-264 -146l-55 107l221 119l-78 48.5l-63 37.5l47 141c52.667 -26.667 99.834 -51.834 141.501 -75.501s80.5 -47.5 116.5 -71.5l258 145l66 -111l-216 -116
c114.667 -84.667 197 -186.167 247 -304.5s75 -272.833 75 -463.5c0 -219.333 -30 -369.833 -90 -451.5s-166 -122.5 -318 -122.5c-151.333 0 -257 40.833 -317 122.5s-90 232.167 -90 451.5c0 202.667 26.833 348.167 80.5 436.5s140.834 132.5 261.501 132.5
c26 0 49.5 -3.83301 70.5 -11.5s41.167 -19.5 60.5 -35.5z" />
    <glyph glyph-name="ntilde" unicode="&#xf1;" horiz-adv-x="993" 
d="M117 0v1157h262v-117c28 48.667 62.333 85.5 103 110.5s87 37.5 139 37.5c84 0 148.333 -24 193 -72s67 -117 67 -207v-909h-258v776c0 68 -8.66699 115.833 -26 143.5s-46.333 41.5 -87 41.5c-44.667 0 -76.667 -17 -96 -51s-29 -91.667 -29 -173v-737h-268zM305 1292
l-88.001 -0.000976562c13.333 77.333 35 135.333 65 174s68 58 114 58c10 0 20.167 -0.666992 30.5 -2s20.5 -3.33301 30.5 -6l110 -33c7.33301 -2 15 -3.5 23 -4.5s16.333 -1.5 25 -1.5c20 0 36.333 6.33301 49 19s21.667 31.334 27 56.001h88
c-11.333 -74.667 -33.333 -132.834 -66 -174.501s-73 -62.5 -121 -62.5c-9.33301 0 -18 0.666992 -26 2s-16.333 3.33301 -25 6l-121 35c-5.33301 2 -10.666 3.5 -15.999 4.5s-11 1.5 -17 1.5c-21.333 0 -39 -6.16699 -53 -18.5s-23.667 -30.166 -29 -53.499z" />
    <glyph glyph-name="ograve" unicode="&#xf2;" horiz-adv-x="979" 
d="M356 590v-27c0 -179.333 9 -289 27 -329s52.667 -60 104 -60c53.333 0 89.333 18.833 108 56.5s28 135.5 28 293.5v47v66c0 151.333 -9.5 246.5 -28.5 285.5s-54.167 58.5 -105.5 58.5c-50.667 0 -85.5 -17.833 -104.5 -53.5s-28.5 -121.5 -28.5 -257.5v-80zM82 578
c0 233.333 30 393.333 90 480s165.667 130 317 130c152 0 258 -43.333 318 -130s90 -246.667 90 -480s-30 -393.166 -90 -479.499s-166 -129.5 -318 -129.5c-151.333 0 -257 43.167 -317 129.5s-90 246.166 -90 479.499zM630 1280h-125l-305 285h256z" />
    <glyph glyph-name="oacute" unicode="&#xf3;" horiz-adv-x="979" 
d="M356 590v-27c0 -179.333 9 -289 27 -329s52.667 -60 104 -60c53.333 0 89.333 18.833 108 56.5s28 135.5 28 293.5v47v66c0 151.333 -9.5 246.5 -28.5 285.5s-54.167 58.5 -105.5 58.5c-50.667 0 -85.5 -17.833 -104.5 -53.5s-28.5 -121.5 -28.5 -257.5v-80zM82 578
c0 233.333 30 393.333 90 480s165.667 130 317 130c152 0 258 -43.333 318 -130s90 -246.667 90 -480s-30 -393.166 -90 -479.499s-166 -129.5 -318 -129.5c-151.333 0 -257 43.167 -317 129.5s-90 246.166 -90 479.499zM348 1280l174 285h256l-305 -285h-125z" />
    <glyph glyph-name="ocircumflex" unicode="&#xf4;" horiz-adv-x="979" 
d="M356 590v-27c0 -179.333 9 -289 27 -329s52.667 -60 104 -60c53.333 0 89.333 18.833 108 56.5s28 135.5 28 293.5v47v66c0 151.333 -9.5 246.5 -28.5 285.5s-54.167 58.5 -105.5 58.5c-50.667 0 -85.5 -17.833 -104.5 -53.5s-28.5 -121.5 -28.5 -257.5v-80zM82 578
c0 233.333 30 393.333 90 480s165.667 130 317 130c152 0 258 -43.333 318 -130s90 -246.667 90 -480s-30 -393.166 -90 -479.499s-166 -129.5 -318 -129.5c-151.333 0 -257 43.167 -317 129.5s-90 246.166 -90 479.499zM213 1280l174 285h204l174 -285h-124l-152 150
l-152 -150h-124z" />
    <glyph glyph-name="otilde" unicode="&#xf5;" horiz-adv-x="979" 
d="M356 590v-27c0 -179.333 9 -289 27 -329s52.667 -60 104 -60c53.333 0 89.333 18.833 108 56.5s28 135.5 28 293.5v47v66c0 151.333 -9.5 246.5 -28.5 285.5s-54.167 58.5 -105.5 58.5c-50.667 0 -85.5 -17.833 -104.5 -53.5s-28.5 -121.5 -28.5 -257.5v-80zM82 578
c0 233.333 30 393.333 90 480s165.667 130 317 130c152 0 258 -43.333 318 -130s90 -246.667 90 -480s-30 -393.166 -90 -479.499s-166 -129.5 -318 -129.5c-151.333 0 -257 43.167 -317 129.5s-90 246.166 -90 479.499zM296 1292l-88.001 -0.000976562
c13.333 77.333 35 135.333 65 174s68 58 114 58c10 0 20.167 -0.666992 30.5 -2s20.5 -3.33301 30.5 -6l110 -33c7.33301 -2 15 -3.5 23 -4.5s16.333 -1.5 25 -1.5c20 0 36.333 6.33301 49 19s21.667 31.334 27 56.001h88c-11.333 -74.667 -33.333 -132.834 -66 -174.501
s-73 -62.5 -121 -62.5c-9.33301 0 -18 0.666992 -26 2s-16.333 3.33301 -25 6l-121 35c-5.33301 2 -10.666 3.5 -15.999 4.5s-11 1.5 -17 1.5c-21.333 0 -39 -6.16699 -53 -18.5s-23.667 -30.166 -29 -53.499z" />
    <glyph glyph-name="odieresis" unicode="&#xf6;" horiz-adv-x="979" 
d="M356 590v-27c0 -179.333 9 -289 27 -329s52.667 -60 104 -60c53.333 0 89.333 18.833 108 56.5s28 135.5 28 293.5v47v66c0 151.333 -9.5 246.5 -28.5 285.5s-54.167 58.5 -105.5 58.5c-50.667 0 -85.5 -17.833 -104.5 -53.5s-28.5 -121.5 -28.5 -257.5v-80zM82 578
c0 233.333 30 393.333 90 480s165.667 130 317 130c152 0 258 -43.333 318 -130s90 -246.667 90 -480s-30 -393.166 -90 -479.499s-166 -129.5 -318 -129.5c-151.333 0 -257 43.167 -317 129.5s-90 246.166 -90 479.499zM550 1303v237h220v-237h-220zM208 1303v237h220v-237
h-220z" />
    <glyph glyph-name="divide" unicode="&#xf7;" horiz-adv-x="1706" 
d="M854 369c41.333 0 77 -15 107 -45s45 -65.667 45 -107c0 -40.667 -15 -75.667 -45 -105s-65.667 -44 -107 -44c-42 0 -77.833 14.333 -107.5 43s-44.5 64 -44.5 106s14.833 77.833 44.5 107.5s65.5 44.5 107.5 44.5zM254 711h1198v-199h-1198v199zM854 1155
c41.333 0 77 -14.833 107 -44.5s45 -65.167 45 -106.5c0 -42 -14.833 -77.833 -44.5 -107.5s-65.5 -44.5 -107.5 -44.5s-77.833 14.833 -107.5 44.5s-44.5 65.5 -44.5 107.5s14.833 77.667 44.5 107s65.5 44 107.5 44z" />
    <glyph glyph-name="oslash" unicode="&#xf8;" horiz-adv-x="979" 
d="M627 707l-263.999 -403c0.666992 -46 11.167 -79.833 31.5 -101.5s51.166 -32.5 92.499 -32.5c53.333 0 90 16 110 48s30 102.667 30 212v277zM352.001 471l266 401.001c-6.66699 38.667 -20.5 67.167 -41.5 85.5s-50.167 27.5 -87.5 27.5
c-52.667 0 -89 -19.333 -109 -58s-30 -118.334 -30 -239.001c0 -18.667 0.333008 -52 1 -100s1 -87 1 -117zM-3.99902 -48.999l139.003 213.003c-18.667 46.667 -32.167 99.334 -40.5 158.001s-12.5 131 -12.5 217c0 117.333 3.66699 208.666 11 273.999
s19.333 121.333 36 168c24 67.333 66.667 118.666 128 153.999s138.666 53 231.999 53c60.667 0 112.5 -6.5 155.5 -19.5s81.5 -33.833 115.5 -62.5l106 166l99 -74l-125 -192c20 -50.667 34.5 -107.334 43.5 -170.001s13.5 -140.667 13.5 -234
c0 -246.667 -29.833 -413.834 -89.5 -501.501s-165.834 -131.5 -318.501 -131.5c-63.333 0 -116.833 6.83301 -160.5 20.5s-82.834 35.5 -117.501 65.5l-117 -176z" />
    <glyph glyph-name="ugrave" unicode="&#xf9;" horiz-adv-x="991" 
d="M877 1157l0.00195312 -1157h-263v115c-27.333 -48 -61.5 -84.333 -102.5 -109s-87.833 -37 -140.5 -37c-84 0 -148 23.833 -192 71.5s-66 116.834 -66 207.501v909h258v-756c0 -76.667 8.66699 -129.5 26 -158.5s46.666 -43.5 87.999 -43.5c45.333 0 77.166 16 95.499 48
s27.5 89 27.5 171v739h269zM637.002 1280h-125l-305 285h256z" />
    <glyph glyph-name="uacute" unicode="&#xfa;" horiz-adv-x="991" 
d="M877 1157l0.00195312 -1157h-263v115c-27.333 -48 -61.5 -84.333 -102.5 -109s-87.833 -37 -140.5 -37c-84 0 -148 23.833 -192 71.5s-66 116.834 -66 207.501v909h258v-756c0 -76.667 8.66699 -129.5 26 -158.5s46.666 -43.5 87.999 -43.5c45.333 0 77.166 16 95.499 48
s27.5 89 27.5 171v739h269zM355.002 1280l174 285h256l-305 -285h-125z" />
    <glyph glyph-name="ucircumflex" unicode="&#xfb;" horiz-adv-x="991" 
d="M877 1157l0.00195312 -1157h-263v115c-27.333 -48 -61.5 -84.333 -102.5 -109s-87.833 -37 -140.5 -37c-84 0 -148 23.833 -192 71.5s-66 116.834 -66 207.501v909h258v-756c0 -76.667 8.66699 -129.5 26 -158.5s46.666 -43.5 87.999 -43.5c45.333 0 77.166 16 95.499 48
s27.5 89 27.5 171v739h269zM220.002 1280l174 285h204l174 -285h-124l-152 150l-152 -150h-124z" />
    <glyph glyph-name="udieresis" unicode="&#xfc;" horiz-adv-x="991" 
d="M877 1157l0.00195312 -1157h-263v115c-27.333 -48 -61.5 -84.333 -102.5 -109s-87.833 -37 -140.5 -37c-84 0 -148 23.833 -192 71.5s-66 116.834 -66 207.501v909h258v-756c0 -76.667 8.66699 -129.5 26 -158.5s46.666 -43.5 87.999 -43.5c45.333 0 77.166 16 95.499 48
s27.5 89 27.5 171v739h269zM557.002 1303v237h220v-237h-220zM215.002 1303v237h220v-237h-220z" />
    <glyph glyph-name="yacute" unicode="&#xfd;" horiz-adv-x="909" 
d="M176 -379l0.00195312 200.001c5.33301 0 11 -0.166992 17 -0.5s14.667 -0.5 26 -0.5c38 0 65.667 6.16699 83 18.5s26 32.166 26 59.499c0 8.66699 -1 19 -3 31s-4.66699 23.667 -8 35l-297 1193h283l160 -835l155 835h271l-301 -1266
c-26.667 -110 -62.167 -183.833 -106.5 -221.5s-114.833 -56.5 -211.5 -56.5c-14.667 0 -29.834 0.666992 -45.501 2s-31.834 3.33301 -48.501 6zM314.002 1280l174 285h256l-305 -285h-125z" />
    <glyph glyph-name="thorn" unicode="&#xfe;" horiz-adv-x="995" 
d="M385 98v-487.001h-268v1929h268v-491c15.333 44 42.333 78.167 81 102.5s85.334 36.5 140.001 36.5c112 0 190.833 -44.333 236.5 -133s68.5 -245.667 68.5 -471c0 -238 -22.333 -400 -67 -486s-124 -129 -238 -129c-51.333 0 -95.333 10.833 -132 32.5
s-66.334 53.834 -89.001 96.501zM516 966.999c-52.667 0 -89 -20.332 -109 -60.999s-30 -125 -30 -253c0 -204.667 9.83301 -332.167 29.5 -382.5s56.167 -75.5 109.5 -75.5c47.333 0 79.666 21.667 96.999 65s26 150.666 26 321.999c0 166 -8.66699 271.667 -26 317
s-49.666 68 -96.999 68z" />
    <glyph glyph-name="ydieresis" unicode="&#xff;" horiz-adv-x="909" 
d="M176 -379l0.00195312 200.001c5.33301 0 11 -0.166992 17 -0.5s14.667 -0.5 26 -0.5c38 0 65.667 6.16699 83 18.5s26 32.166 26 59.499c0 8.66699 -1 19 -3 31s-4.66699 23.667 -8 35l-297 1193h283l160 -835l155 835h271l-301 -1266
c-26.667 -110 -62.167 -183.833 -106.5 -221.5s-114.833 -56.5 -211.5 -56.5c-14.667 0 -29.834 0.666992 -45.501 2s-31.834 3.33301 -48.501 6zM516.002 1303v237h220v-237h-220zM174.002 1303v237h220v-237h-220z" />
    <glyph glyph-name="Cacute" unicode="&#x106;" horiz-adv-x="1122" 
d="M743 549h279.001c0 -6.66699 0.333008 -16.5 1 -29.5s1 -23.167 1 -30.5c0 -178 -37.5 -310.167 -112.5 -396.5s-189.833 -129.5 -344.5 -129.5c-73.333 0 -136.333 9.5 -189 28.5s-98 48.5 -136 88.5c-52 53.333 -88.667 126.666 -110 219.999s-32 256 -32 488
c0 158.667 6.33301 284.834 19 378.501s32.334 163.5 59.001 209.5c41.333 70.667 92.666 121.834 153.999 153.501s139.666 47.5 234.999 47.5c156 0 269.5 -40.667 340.5 -122s106.833 -212 107.5 -392h-278v37c0 83.333 -13.5 145.5 -40.5 186.5
s-68.167 61.5 -123.5 61.5c-68.667 0 -115.5 -28.333 -140.5 -85s-37.5 -213.334 -37.5 -470.001c0 -277.333 12.167 -446 36.5 -506s70.833 -90 139.5 -90c64 0 108.667 23.5 134 70.5s38 133.833 38 260.5v21zM420.001 1669l174 285h256l-305 -285h-125z" />
    <glyph glyph-name="cacute" unicode="&#x107;" horiz-adv-x="930" 
d="M846 454c0.666992 -8 1.16602 -16.502 1.49902 -25.502s0.5 -22.167 0.5 -39.5c0 -143.333 -30.5 -249.166 -91.5 -317.499s-155.5 -102.5 -283.5 -102.5c-145.333 0 -246.833 43 -304.5 129s-86.5 246 -86.5 480c0 233.333 28.833 393.333 86.5 480
s159.167 130 304.5 130c127.333 0 221.333 -31.667 282 -95s91 -161.333 91 -294v-41h-256v26c0 70 -9 120.333 -27 151s-47.333 46 -88 46c-41.333 0 -71.166 -15 -89.499 -45s-27.5 -80 -27.5 -150v-399c0 -79.333 8.66699 -134.666 26 -165.999s47 -47 89 -47
c45.333 0 76.833 18 94.5 54s26.5 103.333 26.5 202v25zM323.999 1280l174 285h256l-305 -285h-125z" />
    <glyph glyph-name="Ccaron" unicode="&#x10c;" horiz-adv-x="1122" 
d="M743 549h279.001c0 -6.66699 0.333008 -16.5 1 -29.5s1 -23.167 1 -30.5c0 -178 -37.5 -310.167 -112.5 -396.5s-189.833 -129.5 -344.5 -129.5c-73.333 0 -136.333 9.5 -189 28.5s-98 48.5 -136 88.5c-52 53.333 -88.667 126.666 -110 219.999s-32 256 -32 488
c0 158.667 6.33301 284.834 19 378.501s32.334 163.5 59.001 209.5c41.333 70.667 92.666 121.834 153.999 153.501s139.666 47.5 234.999 47.5c156 0 269.5 -40.667 340.5 -122s106.833 -212 107.5 -392h-278v37c0 83.333 -13.5 145.5 -40.5 186.5
s-68.167 61.5 -123.5 61.5c-68.667 0 -115.5 -28.333 -140.5 -85s-37.5 -213.334 -37.5 -470.001c0 -277.333 12.167 -446 36.5 -506s70.833 -90 139.5 -90c64 0 108.667 23.5 134 70.5s38 133.833 38 260.5v21zM285.001 1954h124l152 -150l152 150h124l-174 -285h-204z" />
    <glyph glyph-name="ccaron" unicode="&#x10d;" horiz-adv-x="930" 
d="M846 454c0.666992 -8 1.16602 -16.502 1.49902 -25.502s0.5 -22.167 0.5 -39.5c0 -143.333 -30.5 -249.166 -91.5 -317.499s-155.5 -102.5 -283.5 -102.5c-145.333 0 -246.833 43 -304.5 129s-86.5 246 -86.5 480c0 233.333 28.833 393.333 86.5 480
s159.167 130 304.5 130c127.333 0 221.333 -31.667 282 -95s91 -161.333 91 -294v-41h-256v26c0 70 -9 120.333 -27 151s-47.333 46 -88 46c-41.333 0 -71.166 -15 -89.499 -45s-27.5 -80 -27.5 -150v-399c0 -79.333 8.66699 -134.666 26 -165.999s47 -47 89 -47
c45.333 0 76.833 18 94.5 54s26.5 103.333 26.5 202v25zM188.999 1565h124l152 -150l152 150h124l-174 -285h-204z" />
    <glyph glyph-name="dcroat" unicode="&#x111;" horiz-adv-x="995" 
d="M356 596c0 -178.667 8.66797 -291.001 26.001 -337.001s49.666 -69 96.999 -69c53.333 0 89.833 20.333 109.5 61s29.5 125 29.5 253c0 204.667 -9.83301 332.334 -29.5 383.001s-56.167 76 -109.5 76c-46 0 -78 -22.167 -96 -66.5s-27 -144.5 -27 -300.5z
M625.001 120.999c-22 -50 -52.667 -87.833 -92 -113.5s-87.333 -38.5 -144 -38.5c-112 0 -190.833 44.333 -236.5 133s-68.5 245.667 -68.5 471c0 234 22.333 395 67 483s122 132 232 132c54 0 99.5 -10.5 136.5 -31.5s67.167 -53.5 90.5 -97.5v215h-229v143h229v123h269
v-123h159v-143h-159v-1274h-254v121z" />
    <glyph glyph-name="Gbreve" unicode="&#x11e;" horiz-adv-x="1206" 
d="M891 0l-20.999 170c-29.333 -74 -69.5 -127 -120.5 -159s-121.167 -48 -210.5 -48c-161.333 0 -274.833 61 -340.5 183s-98.5 345.667 -98.5 671c0 152 7.83301 273.833 23.5 365.5s40.167 162.5 73.5 212.5c40 61.333 93 106.666 159 135.999s148 44 246 44
c165.333 0 287.166 -39 365.499 -117s117.5 -199.333 117.5 -364v-39h-268v16c0 92 -17.167 161.5 -51.5 208.5s-85.5 70.5 -153.5 70.5c-83.333 0 -140.333 -32 -171 -96s-46 -233.667 -46 -509c0 -217.333 14.667 -362.666 44 -435.999s82.333 -110 159 -110
c76 0 130.167 26 162.5 78s48.5 140 48.5 264v53h-199v246h475v-840h-194zM330.001 1954l114.003 0.000976562c7.33301 -42.667 23.666 -73.834 48.999 -93.501s62.333 -29.5 111 -29.5c49.333 0 87 10 113 30s41.667 51 47 93h114c-9.33301 -98 -36 -170 -80 -216
s-108.667 -69 -194 -69c-84.667 0 -149.334 23 -194.001 69s-71.334 118 -80.001 216z" />
    <glyph glyph-name="gbreve" unicode="&#x11f;" horiz-adv-x="995" 
d="M879 92c0 -102 -4.83203 -176.499 -14.499 -223.499s-26.167 -87.167 -49.5 -120.5c-30 -44.667 -74.833 -78.667 -134.5 -102s-131.5 -35 -215.5 -35c-114.667 0 -202.334 22.333 -263.001 67s-91.667 109.667 -93 195h265c2 -22.667 11.5 -40.334 28.5 -53.001
s40.5 -19 70.5 -19c50.667 0 86.167 15.5 106.5 46.5s30.5 87.833 30.5 170.5v80c-22.667 -43.333 -52.167 -75.666 -88.5 -96.999s-79.833 -32 -130.5 -32c-114 0 -193.667 43.167 -239 129.5s-68 248.166 -68 485.499c0 225.333 23 382.333 69 471s124.667 133 236 133
c56.667 0 104.667 -12.667 144 -38s70 -63.333 92 -114v121h254v-1065zM479.001 967.001c-47.333 0 -79.668 -23.168 -97.001 -69.501s-26 -159.166 -26 -338.499c0 -156.667 8.83301 -256.5 26.5 -299.5s49.834 -64.5 96.501 -64.5c53.333 0 89.833 25.167 109.5 75.5
s29.5 177.833 29.5 382.5c0 128 -9.83301 212.333 -29.5 253s-56.167 61 -109.5 61zM223.999 1565l114.003 0.000976562c7.33301 -42.667 23.666 -73.834 48.999 -93.501s62.333 -29.5 111 -29.5c49.333 0 87 10 113 30s41.667 51 47 93h114c-9.33301 -98 -36 -170 -80 -216
s-108.667 -69 -194 -69c-84.667 0 -149.334 23 -194.001 69s-71.334 118 -80.001 216z" />
    <glyph glyph-name="Idotaccent" unicode="&#x130;" horiz-adv-x="549" 
d="M131 0v1540h287v-1540h-287zM168 1696v231h212v-231h-212z" />
    <glyph glyph-name="dotlessi" unicode="&#x131;" horiz-adv-x="496" 
d="M115 0v1157h266v-1157h-266z" />
    <glyph glyph-name="Lslash" unicode="&#x141;" horiz-adv-x="1014" 
d="M145 0v582l-153 -107v227l153 107v731h287v-610l250 174v-227l-250 -175v-440h518v-262h-805z" />
    <glyph glyph-name="lslash" unicode="&#x142;" horiz-adv-x="535" 
d="M135 0v608l-135 -96v188l135 99v741h264v-614l136 92v-187l-136 -94v-737h-264z" />
    <glyph glyph-name="OE" unicode="&#x152;" horiz-adv-x="1667" 
d="M801 412l0.000976562 739.001c0 59.333 -17.667 107 -53 143s-82 54 -140 54c-80.667 0 -137 -40.5 -169 -121.5s-48 -238.5 -48 -472.5c0 -216.667 16.667 -364.334 50 -443.001s91.666 -118 174.999 -118c55.333 0 100 20 134 60s51 93 51 159zM819.001 113.001
c-23.333 -50.667 -57.501 -87.999 -102.501 -111.999s-103.5 -36 -175.5 -36c-157.333 0 -269.5 59.833 -336.5 179.5s-100.5 325.5 -100.5 617.5c0 153.333 5.66699 276.5 17 369.5s29 163.5 53 211.5c40 79.333 91.833 138.166 155.5 176.499s140.834 57.5 231.501 57.5
c63.333 0 116 -12 158 -36s75.333 -61 100 -111v110h760v-256h-502v-358h469v-240h-469v-426h516v-260h-774v113z" />
    <glyph glyph-name="oe" unicode="&#x153;" horiz-adv-x="1425" 
d="M864 723h232.001v90c0 58 -9.83301 100.167 -29.5 126.5s-50.834 39.5 -93.501 39.5c-40 0 -68.5 -15 -85.5 -45s-25.5 -80 -25.5 -150c0 -5.33301 0.333008 -14.833 1 -28.5s1 -24.5 1 -32.5zM346.001 653l-0.00195312 -82c0 -179.333 8.83301 -291 26.5 -335
s51.167 -66 100.5 -66c48.667 0 82.334 19 101.001 57s28 114.667 28 230v164c0 152 -9.16699 249.667 -27.5 293s-52.166 65 -101.499 65c-48.667 0 -82 -18 -100 -54s-27 -126.667 -27 -272zM728.999 86c-28 -40.667 -65.3359 -70.334 -112.003 -89.001
s-107.667 -28 -183 -28c-132 0 -223 40.333 -273 121s-75 237.667 -75 471c0 126 4.33301 227.333 13 304s22 131 40 163c30 55.333 70 95.833 120 121.5s114 38.5 192 38.5c61.333 0 113.5 -10.167 156.5 -30.5s81.5 -53.166 115.5 -98.499
c32.667 43.333 71.334 75.666 116.001 96.999s96.667 32 156 32c58.667 0 111.5 -10.667 158.5 -32s85.167 -51.666 114.5 -90.999c28 -37.333 48 -81.833 60 -133.5s18 -138.167 18 -259.5v-27v-110h-484v-72c0 -130.667 8.16699 -212.167 24.5 -244.5
s47.833 -48.5 94.5 -48.5c42 0 71.667 14.333 89 43s26 79.334 26 152.001v30h245v-43c0 -131.333 -27.667 -228 -83 -290s-141.666 -93 -258.999 -93c-70 0 -125.667 9.16699 -167 27.5s-75.666 48.166 -102.999 89.499z" />
    <glyph glyph-name="Scedilla" unicode="&#x15e;" horiz-adv-x="1122" 
d="M102 541l286.999 0.00292969v-99c0 -94.667 11.833 -159.167 35.5 -193.5s64.5 -51.5 122.5 -51.5c60.667 0 106.834 15.333 138.501 46s47.5 76 47.5 136c0 46 -11 85.5 -33 118.5s-69.667 75.5 -143 127.5l-147 104c-126.667 88 -207.167 160.667 -241.5 218
s-51.5 129.333 -51.5 216c0 129.333 38.333 230.666 115 303.999s182.334 110 317.001 110c142.667 0 252 -39 328 -117s114 -190 114 -336c0 -14.667 -0.166992 -26 -0.5 -34s-0.833008 -15 -1.5 -21h-272v41c0 83.333 -13.667 143 -41 179s-72.333 54 -135 54
c-46 0 -82.167 -13.5 -108.5 -40.5s-39.5 -64.5 -39.5 -112.5c0 -64.667 59 -136.334 177 -215.001c1.33301 -0.666992 2.33301 -1.33398 3 -2.00098l158 -107c112.667 -74.667 189 -145.167 229 -211.5s60 -150.833 60 -253.5c0 -140 -40 -248 -120 -324
s-194.333 -114 -343 -114c-154.667 0 -269.834 40 -345.501 120s-113.5 202 -113.5 366c0 17.333 1.33301 46 4 86v6zM320.999 -318.997c63.333 -10.667 110.167 -17.834 140.5 -21.501s54.5 -5.5 72.5 -5.5c29.333 0 51 5.83301 65 17.5s21 29.834 21 54.501
c0 20.667 -8.33301 36 -25 46s-43 15 -79 15h-23v213h115v-83c65.333 -6 115.166 -25.5 149.499 -58.5s51.5 -77.833 51.5 -134.5c0 -66.667 -22.167 -118.167 -66.5 -154.5s-106.833 -54.5 -187.5 -54.5c-28 0 -60.667 2.16699 -98 6.5s-82.666 11.5 -135.999 21.5v138z
" />
    <glyph glyph-name="scedilla" unicode="&#x15f;" horiz-adv-x="901" 
d="M76 385h241.001v-33c0 -66.667 10.167 -114 30.5 -142s54.166 -42 101.499 -42c37.333 0 66.666 10 87.999 30s32 47.667 32 83c0 44 -43 94.667 -129 152l-51 34c-2.66699 2 -7 5 -13 9c-196 134.667 -294 266.667 -294 396c0 102.667 31.833 181 95.5 235
s156.167 81 277.5 81c117.333 0 205.333 -29.833 264 -89.5s88 -150.167 88 -271.5v-24h-236v24c0 56 -10.667 97 -32 123s-55 39 -101 39c-33.333 0 -60 -9.16699 -80 -27.5s-30 -42.5 -30 -72.5c0 -28 8.83301 -53.333 26.5 -76s57.167 -54.667 118.5 -96l61 -41
c194 -128 291 -256.333 291 -385c0 -102.667 -32.833 -182 -98.5 -238s-159.167 -84 -280.5 -84c-127.333 0 -221.166 30 -281.499 90s-90.5 153.667 -90.5 281c0 4.66699 0.333008 12 1 22s1 17.667 1 23zM127.001 -319c63.333 -10.667 110.167 -17.834 140.5 -21.501
s54.5 -5.5 72.5 -5.5c29.333 0 51 5.83301 65 17.5s21 29.834 21 54.501c0 20.667 -8.33301 36 -25 46s-43 15 -79 15h-23v213h115v-83c65.333 -6 115.166 -25.5 149.499 -58.5s51.5 -77.833 51.5 -134.5c0 -66.667 -22.167 -118.167 -66.5 -154.5
s-106.833 -54.5 -187.5 -54.5c-28 0 -60.667 2.16699 -98 6.5s-82.666 11.5 -135.999 21.5v138z" />
    <glyph glyph-name="Scaron" unicode="&#x160;" horiz-adv-x="1122" 
d="M102 541l286.999 0.00292969v-99c0 -94.667 11.833 -159.167 35.5 -193.5s64.5 -51.5 122.5 -51.5c60.667 0 106.834 15.333 138.501 46s47.5 76 47.5 136c0 46 -11 85.5 -33 118.5s-69.667 75.5 -143 127.5l-147 104c-126.667 88 -207.167 160.667 -241.5 218
s-51.5 129.333 -51.5 216c0 129.333 38.333 230.666 115 303.999s182.334 110 317.001 110c142.667 0 252 -39 328 -117s114 -190 114 -336c0 -14.667 -0.166992 -26 -0.5 -34s-0.833008 -15 -1.5 -21h-272v41c0 83.333 -13.667 143 -41 179s-72.333 54 -135 54
c-46 0 -82.167 -13.5 -108.5 -40.5s-39.5 -64.5 -39.5 -112.5c0 -64.667 59 -136.334 177 -215.001c1.33301 -0.666992 2.33301 -1.33398 3 -2.00098l158 -107c112.667 -74.667 189 -145.167 229 -211.5s60 -150.833 60 -253.5c0 -140 -40 -248 -120 -324
s-194.333 -114 -343 -114c-154.667 0 -269.834 40 -345.501 120s-113.5 202 -113.5 366c0 17.333 1.33301 46 4 86v6zM284.999 1954h124l152 -150l152 150h124l-174 -285h-204z" />
    <glyph glyph-name="scaron" unicode="&#x161;" horiz-adv-x="901" 
d="M76 385h241.001v-33c0 -66.667 10.167 -114 30.5 -142s54.166 -42 101.499 -42c37.333 0 66.666 10 87.999 30s32 47.667 32 83c0 44 -43 94.667 -129 152l-51 34c-2.66699 2 -7 5 -13 9c-196 134.667 -294 266.667 -294 396c0 102.667 31.833 181 95.5 235
s156.167 81 277.5 81c117.333 0 205.333 -29.833 264 -89.5s88 -150.167 88 -271.5v-24h-236v24c0 56 -10.667 97 -32 123s-55 39 -101 39c-33.333 0 -60 -9.16699 -80 -27.5s-30 -42.5 -30 -72.5c0 -28 8.83301 -53.333 26.5 -76s57.167 -54.667 118.5 -96l61 -41
c194 -128 291 -256.333 291 -385c0 -102.667 -32.833 -182 -98.5 -238s-159.167 -84 -280.5 -84c-127.333 0 -221.166 30 -281.499 90s-90.5 153.667 -90.5 281c0 4.66699 0.333008 12 1 22s1 17.667 1 23zM175.001 1565h124l152 -150l152 150h124l-174 -285h-204z" />
    <glyph glyph-name="Ydieresis" unicode="&#x178;" horiz-adv-x="1126" 
d="M422 0v653l-404 887h318l233 -579l230 579h309l-397 -887v-653h-289zM624 1692v237h220v-237h-220zM282 1692v237h220v-237h-220z" />
    <glyph glyph-name="Zcaron" unicode="&#x17d;" horiz-adv-x="991" 
d="M61 0v260l541 1040h-514v240h819v-237l-534 -1043h557v-260h-869zM220 1954h124l152 -150l152 150h124l-174 -285h-204z" />
    <glyph glyph-name="zcaron" unicode="&#x17e;" horiz-adv-x="784" 
d="M43 0v213l391 719h-387v225h688v-194l-403 -736h407v-227h-696zM117 1565h124l152 -150l152 150h124l-174 -285h-204z" />
    <glyph glyph-name="florin" unicode="&#x192;" 
d="M-10 -362l31 229.001c15.333 -6 30.5 -10.5 45.5 -13.5s29.167 -4.83301 42.5 -5.5c35.333 0 63 13.5 83 40.5s35.333 71.833 46 134.5l133 796h-234v197h258c24.667 188 68.334 324 131.001 408s151.667 126 267 126c27.333 0 54.333 -3 81 -9s54 -15.333 82 -28
l-41 -206c-12 9.33301 -25.5 16.333 -40.5 21s-30.833 7 -47.5 7c-48 0 -84.167 -22.5 -108.5 -67.5s-43.166 -128.833 -56.499 -251.5h225v-197h-248l-113 -696c-29.333 -182 -72.333 -312.833 -129 -392.5s-134.334 -119.5 -233.001 -119.5c-30 0 -59.333 2.16699 -88 6.5
s-57.334 11.166 -86.001 20.499z" />
    <glyph glyph-name="circumflex" unicode="&#x2c6;" 
d="M236 1280l174 285h204l174 -285h-124l-152 150l-152 -150h-124z" />
    <glyph glyph-name="caron" unicode="&#x2c7;" 
d="M236 1565h124l152 -150l152 150h124l-174 -285h-204z" />
    <glyph glyph-name="breve" unicode="&#x2d8;" 
d="M238 1565l114.003 0.000976562c7.33301 -42.667 23.666 -73.834 48.999 -93.501s62.333 -29.5 111 -29.5c49.333 0 87 10 113 30s41.667 51 47 93h114c-9.33301 -98 -36 -170 -80 -216s-108.667 -69 -194 -69c-84.667 0 -149.334 23 -194.001 69s-71.334 118 -80.001 216
z" />
    <glyph glyph-name="dotaccent" unicode="&#x2d9;" 
d="M406 1307v231h212v-231h-212z" />
    <glyph glyph-name="ring" unicode="&#x2da;" 
d="M426 1497c0 -23.333 8.5 -43.167 25.5 -59.5s37.833 -24.5 62.5 -24.5s45.167 8 61.5 24s24.5 36 24.5 60c0 25.333 -8.16699 46.333 -24.5 63s-36.833 25 -61.5 25c-25.333 0 -46.333 -8.33301 -63 -25s-25 -37.667 -25 -63zM297 1501c0 59.333 21 110 63 152
s92.667 63 152 63c60 0 111.167 -21 153.5 -63s63.5 -92.667 63.5 -152c0 -61.333 -21 -113.166 -63 -155.499s-93.333 -63.5 -154 -63.5s-111.667 21.167 -153 63.5s-62 94.166 -62 155.499z" />
    <glyph glyph-name="ogonek" unicode="&#x2db;" 
d="M633 0c-42 -38.667 -72.333 -73.5 -91 -104.5s-28 -61.833 -28 -92.5c0 -27.333 6.16699 -47.333 18.5 -60s31.5 -19 57.5 -19h84v-191h-56c-104 0 -177.667 15.167 -221 45.5s-65 80.833 -65 151.5c0 50.667 15.5 97.667 46.5 141s79.5 86.333 145.5 129h109z" />
    <glyph glyph-name="tilde" unicode="&#x2dc;" 
d="M319 1292l-88.001 -0.000976562c13.333 77.333 35 135.333 65 174s68 58 114 58c10 0 20.167 -0.666992 30.5 -2s20.5 -3.33301 30.5 -6l110 -33c7.33301 -2 15 -3.5 23 -4.5s16.333 -1.5 25 -1.5c20 0 36.333 6.33301 49 19s21.667 31.334 27 56.001h88
c-11.333 -74.667 -33.333 -132.834 -66 -174.501s-73 -62.5 -121 -62.5c-9.33301 0 -18 0.666992 -26 2s-16.333 3.33301 -25 6l-121 35c-5.33301 2 -10.666 3.5 -15.999 4.5s-11 1.5 -17 1.5c-21.333 0 -39 -6.16699 -53 -18.5s-23.667 -30.166 -29 -53.499z" />
    <glyph glyph-name="hungarumlaut" unicode="&#x2dd;" 
d="M563 1280l164 285h242l-295 -285h-111zM283 1280l129 285h231l-264 -285h-96z" />
    <glyph glyph-name="Omega" unicode="&#x3a9;" horiz-adv-x="1575" 
d="M1227 256l291.001 -0.000976562v-256h-609v291c84 57.333 148 129.833 192 217.5s66 186.5 66 296.5c0 135.333 -33.833 241.833 -101.5 319.5s-160.834 116.5 -279.501 116.5c-118 0 -210.833 -38.833 -278.5 -116.5s-101.5 -184.167 -101.5 -319.5
c0 -109.333 22 -208.166 66 -296.499s108 -160.833 192 -217.5v-291h-609v256h291c-84 80.667 -146.333 167.334 -187 260.001s-61 193.667 -61 303c0 208.667 62.667 375.834 188 501.501s292 188.5 500 188.5c208.667 0 375.667 -62.833 501 -188.5
s188 -292.834 188 -501.501c0 -109.333 -20.333 -210.333 -61 -303s-103 -179.334 -187 -260.001z" />
    <glyph glyph-name="pi" unicode="&#x3c0;" horiz-adv-x="1319" 
d="M1354 1092l-39 -224h-176l-154 -868h-287l152 868h-238l-151 -868h-287l152 868h-25c-36.667 0 -64.667 -10.333 -84 -31s-32.333 -53.667 -39 -99l-213 -1c20 133.333 61 225.833 123 277.5s165.667 77.5 311 77.5h955z" />
    <glyph glyph-name="endash" unicode="&#x2013;" 
d="M0 498v161h1024v-161h-1024z" />
    <glyph glyph-name="emdash" unicode="&#x2014;" horiz-adv-x="2048" 
d="M0 498v161h2048v-161h-2048z" />
    <glyph glyph-name="quoteleft" unicode="&#x2018;" horiz-adv-x="512" 
d="M369 1577v-98c-40 -5.33301 -71.5 -22.5 -94.5 -51.5s-34.5 -65.833 -34.5 -110.5v-17h127v-262h-246v277c0 69.333 22.333 127.833 67 175.5s105 76.5 181 86.5z" />
    <glyph glyph-name="quoteright" unicode="&#x2019;" horiz-adv-x="512" 
d="M121 1004v98.001c40 5.33301 71.167 22.166 93.5 50.499s33.5 65.5 33.5 111.5v16h-127v260h248v-274c0 -70 -22.5 -128.667 -67.5 -176s-105.167 -76 -180.5 -86z" />
    <glyph glyph-name="quotesinglbase" unicode="&#x201a;" horiz-adv-x="512" 
d="M121 -274v98c40 5.33301 71.167 21.833 93.5 49.5s33.5 64.5 33.5 110.5v16h-127v262h248v-276c0 -69.333 -22.333 -127.5 -67 -174.5s-105 -75.5 -181 -85.5z" />
    <glyph glyph-name="quotedblleft" unicode="&#x201c;" horiz-adv-x="907" 
d="M516 1038v277c0 69.333 22.5 127.833 67.5 175.5s105.167 76.5 180.5 86.5v-98c-40 -5.33301 -71.5 -22.5 -94.5 -51.5s-34.5 -65.833 -34.5 -110.5v-17h127v-262h-246zM121 1038v277c0 69.333 22.333 127.833 67 175.5s105 76.5 181 86.5v-98
c-40 -5.33301 -71.5 -22.5 -94.5 -51.5s-34.5 -65.833 -34.5 -110.5v-17h127v-262h-246z" />
    <glyph glyph-name="quotedblright" unicode="&#x201d;" horiz-adv-x="907" 
d="M369 1540v-273.999c0 -70 -22.5 -128.667 -67.5 -176s-105.167 -76 -180.5 -86v98c40 5.33301 71.167 22.166 93.5 50.499s33.5 65.5 33.5 111.5v16h-127v260h248zM764 1540v-273.999c0 -70 -22.5 -128.667 -67.5 -176s-105.167 -76 -180.5 -86v98
c40 5.33301 71.167 22.166 93.5 50.499s33.5 65.5 33.5 111.5v16h-127v260h248z" />
    <glyph glyph-name="quotedblbase" unicode="&#x201e;" horiz-adv-x="907" 
d="M764 262v-276c0 -69.333 -22.333 -127.5 -67 -174.5s-105 -75.5 -181 -85.5v98c40.667 5.33301 72 21.833 94 49.5s33 64.5 33 110.5v16h-127v262h248zM369 262v-276c0 -69.333 -22.333 -127.5 -67 -174.5s-105 -75.5 -181 -85.5v98c40 5.33301 71.167 21.833 93.5 49.5
s33.5 64.5 33.5 110.5v16h-127v262h248z" />
    <glyph glyph-name="dagger" unicode="&#x2020;" 
d="M381 -178v1067h-303v241h303v410h260v-410h303v-241h-303v-1067h-260z" />
    <glyph glyph-name="daggerdbl" unicode="&#x2021;" 
d="M381 -170v391h-293v228h293v473h-293v229h293v389h260v-389h295v-229h-295v-473h295v-228h-295v-391h-260z" />
    <glyph glyph-name="bullet" unicode="&#x2022;" horiz-adv-x="1208" 
d="M307 762c0 82 28.999 151.666 86.999 208.999s128 86 210 86c81.333 0 150.833 -28.833 208.5 -86.5s86.5 -127.167 86.5 -208.5s-29.167 -151.166 -87.5 -209.499s-128.166 -87.5 -209.499 -87.5c-82 0 -151.667 29 -209 87s-86 128 -86 210z" />
    <glyph glyph-name="ellipsis" unicode="&#x2026;" horiz-adv-x="2048" 
d="M213 0v276h258v-276h-258zM895 0v276h258v-276h-258zM1579 0v276h258v-276h-258z" />
    <glyph glyph-name="perthousand" unicode="&#x2030;" horiz-adv-x="2308" 
d="M1786 356c0 -92 8 -153.5 24 -184.5s45.333 -46.5 88 -46.5c45.333 0 76.5 15.333 93.5 46s25.5 91.667 25.5 183c0 86 -8.83301 145.5 -26.5 178.5s-49.167 49.5 -94.5 49.5c-40.667 0 -69.167 -16.167 -85.5 -48.5s-24.5 -91.5 -24.5 -177.5zM1583 360
c0 134 24.5 230.333 73.5 289s128.833 88 239.5 88c115.333 0 198.166 -29 248.499 -87s75.5 -154 75.5 -288c0 -136 -25.667 -235.167 -77 -297.5s-133.666 -93.5 -246.999 -93.5c-111.333 0 -191.333 30 -240 90s-73 159.667 -73 299zM1055 356
c0 -90.667 8.16699 -151.833 24.5 -183.5s46.166 -47.5 89.499 -47.5c44.667 0 75.334 15 92.001 45s25 91.333 25 184c0 86 -9 145.5 -27 178.5s-49.333 49.5 -94 49.5c-40.667 0 -69.167 -16.167 -85.5 -48.5s-24.5 -91.5 -24.5 -177.5zM852 360.001
c0 134 24.502 230.333 73.502 289s128.833 88 239.5 88c115.333 0 198.166 -29 248.499 -87s75.5 -154 75.5 -288c0 -136 -25.833 -235.167 -77.5 -297.5s-133.834 -93.5 -246.501 -93.5c-112 0 -192.167 30 -240.5 90s-72.5 159.667 -72.5 299zM291.002 1169
c0 -90.667 8.16699 -151.5 24.5 -182.5s46.5 -46.5 90.5 -46.5s74.333 15 91 45s25 91.333 25 184c0 85.333 -8.83301 144.333 -26.5 177s-49.167 49 -94.5 49c-40.667 0 -69.167 -16.167 -85.5 -48.5s-24.5 -91.5 -24.5 -177.5zM90.002 1176
c0 133.333 24.333 228.999 73 286.999s128.667 87 240 87c115.333 0 197.833 -28.667 247.5 -86s74.5 -152.666 74.5 -285.999c0 -137.333 -25.667 -237.333 -77 -300s-133 -94 -245 -94c-111.333 0 -191.333 30.167 -240 90.5s-73 160.833 -73 301.5zM360.002 -29l705 1579
h149l-706 -1579h-148z" />
    <glyph glyph-name="guilsinglleft" unicode="&#x2039;" horiz-adv-x="588" 
d="M451 965v-222l-193 -163l193 -166v-221l-314 282v207z" />
    <glyph glyph-name="guilsinglright" unicode="&#x203a;" horiz-adv-x="588" 
d="M137 193v221l193 164l-193 165v222l314 -283v-207z" />
    <glyph glyph-name="franc" unicode="&#x20a3;" horiz-adv-x="1694" 
d="M131 0v1540h805v-252h-518v-364h489v-246h-489v-678h-287zM1120 0l-0.000976562 1157h256v-188c36.667 78 75.834 133.667 117.501 167s92.5 50.333 152.5 51v-325c-10 1.33301 -20 2.33301 -30 3s-22.333 1 -37 1c-57.333 0 -102.833 -17 -136.5 -51
s-50.5 -79.667 -50.5 -137v-678h-272z" />
    <glyph glyph-name="trademark" unicode="&#x2122;" horiz-adv-x="1706" 
d="M803 1462h196l127 -332l123 332h197v-547h-135v410l-154 -410h-61l-158 410v-410h-135v547zM207 1462h485v-112h-168v-435h-149v435h-168v112z" />
    <glyph glyph-name="partialdiff" unicode="&#x2202;" horiz-adv-x="1094" 
d="M762 662c12.667 66 22.3311 128.834 28.998 188.501s10 111.5 10 155.5c0 66.667 -8.66699 119.167 -26 157.5s-40.666 57.5 -69.999 57.5s-78 -24.333 -146 -73s-121.333 -73 -160 -73c-28 0 -51.667 10 -71 30s-29 44.333 -29 73c0 42.667 28.833 82 86.5 118
s127.834 54 210.501 54c128 0 231 -53.833 309 -161.5s117 -251.834 117 -432.501c0 -226 -52.167 -412.667 -156.5 -560s-236.5 -221 -396.5 -221c-114 0 -208 38.167 -282 114.5s-111 173.5 -111 291.5c0 132 38.667 241.833 116 329.5s173 131.5 287 131.5
c68 0 124.667 -14.5 170 -43.5s83 -74.5 113 -136.5zM699.997 518.001c0 77.333 -12.835 136.667 -38.502 178s-62.5 62 -110.5 62c-67.333 0 -123.166 -44.667 -167.499 -134s-66.5 -203 -66.5 -341c0 -78 12.833 -137.167 38.5 -177.5s62.834 -60.5 111.501 -60.5
c67.333 0 123 44.5 167 133.5s66 202.167 66 339.5z" />
    <glyph glyph-name="Delta" unicode="&#x2206;" horiz-adv-x="1427" 
d="M713 1110l-326 -854h653zM563 1473h301l563 -1473h-1427z" />
    <glyph glyph-name="product" unicode="&#x220f;" horiz-adv-x="1612" 
d="M150 1473h1308v-1866h-344v1577h-620v-1577h-344v1866z" />
    <glyph glyph-name="summation" unicode="&#x2211;" horiz-adv-x="1470" 
d="M66 1473h1308v-265h-878l620 -645l-622 -690h933v-266h-1386v172l698 772l-673 690v232z" />
    <glyph glyph-name="minus" unicode="&#x2212;" horiz-adv-x="1706" 
d="M254 713h1198v-203h-1198v203z" />
    <glyph glyph-name="fraction" unicode="&#x2215;" horiz-adv-x="342" 
d="M-188 -29h-154l868 1579h156z" />
    <glyph glyph-name="periodcentered" unicode="&#x2219;" horiz-adv-x="512" 
d="M96 758c0 44.667 15.5 82.5 46.5 113.5s68.833 46.5 113.5 46.5c43.333 0 80.833 -15.833 112.5 -47.5s47.5 -69.167 47.5 -112.5s-15.667 -80.5 -47 -111.5s-69 -46.5 -113 -46.5c-44.667 0 -82.5 15.167 -113.5 45.5s-46.5 67.833 -46.5 112.5z" />
    <glyph glyph-name="radical" unicode="&#x221a;" horiz-adv-x="1346" 
d="M1141 1694h207v-129h-103l-592 -1606h-100l-311 858l-140 -51l-30 113l331 116l236 -661z" />
    <glyph glyph-name="infinity" unicode="&#x221e;" horiz-adv-x="1706" 
d="M942 561c30 -50 65.499 -87.667 106.499 -113s87.5 -38 139.5 -38c62.667 0 113.5 18.5 152.5 55.5s58.5 85.167 58.5 144.5c0 57.333 -18 104.833 -54 142.5s-81 56.5 -135 56.5c-49.333 0 -94.666 -19 -135.999 -57s-85.333 -101.667 -132 -191zM765.999 659
c-30.667 50.667 -66.333 88.334 -107 113.001s-87 37 -139 37c-62 0 -112.667 -18.833 -152 -56.5s-59 -85.834 -59 -144.501c0 -56.667 18 -103.834 54 -141.501s81 -56.5 135 -56.5c50 0 96 19.333 138 58s85.333 102.334 130 191.001zM858 457
c-46 -88.667 -95 -153.832 -147 -195.499s-110 -62.5 -174 -62.5c-92.667 0 -171.167 39.167 -235.5 117.5s-96.5 176.166 -96.5 293.499c0 122.667 28.5 221.667 85.5 297s131.5 113 223.5 113c62 0 118.5 -19.5 169.5 -58.5s105.833 -105.5 164.5 -199.5
c45.333 88 94.666 153.333 147.999 196s111.666 64 174.999 64c92.667 0 171.167 -39.333 235.5 -118s96.5 -176.667 96.5 -294c0 -122 -28.667 -220.667 -86 -296s-131.666 -113 -222.999 -113c-62 0 -118.167 18.833 -168.5 56.5s-106.166 104.167 -167.499 199.5z" />
    <glyph glyph-name="integral" unicode="&#x222b;" horiz-adv-x="1186" 
d="M342 -252c68 0 108.334 213 121.001 639c2 90.667 4 161 6 211c10.667 338.667 51.667 582.667 123 732s180.666 224 327.999 224c65.333 0 117.833 -16.333 157.5 -49s59.5 -75.667 59.5 -129c0 -40 -12.667 -72.167 -38 -96.5s-58.666 -36.5 -99.999 -36.5
c-30.667 0 -56.334 8 -77.001 24s-34.334 38.667 -41.001 68c-3.33301 13.333 -5.66602 31.333 -6.99902 54c-2 30.667 -12 46.334 -30 47.001c-66 0 -105.667 -211 -119 -633l-6 -178c-7.33301 -197.333 -17.666 -345.5 -30.999 -444.5s-33 -182.5 -59 -250.5
c-37.333 -98.667 -86.833 -173.834 -148.5 -225.501s-133.167 -77.5 -214.5 -77.5c-64 0 -116.167 16.333 -156.5 49s-60.5 75 -60.5 127c0 41.333 13 74.333 39 99s61 37 105 37c33.333 0 61.666 -10.5 84.999 -31.5s35 -44.833 35 -71.5c0 -38.667 2 -63 6 -73
s11.667 -15 23 -15z" />
    <glyph glyph-name="approxequal" unicode="&#x2248;" horiz-adv-x="1706" 
d="M1530 596l-0.00292969 -219c-70.667 -48 -136.667 -83.167 -198 -105.5s-121.666 -33.5 -180.999 -33.5c-63.333 0 -158.833 22.167 -286.5 66.5s-228.167 66.5 -301.5 66.5c-56 0 -114.167 -12.333 -174.5 -37s-130.5 -65 -210.5 -121v219
c74 48.667 142.833 84.667 206.5 108s123.834 35 180.501 35c82.667 0 187.834 -21.833 315.501 -65.5s219.167 -65.5 274.5 -65.5c57.333 0 115.333 11.833 174 35.5s125.667 62.5 201 116.5zM1530 1008l0.000976562 -220c-70.667 -47.333 -136.167 -82 -196.5 -104
s-120.5 -33 -180.5 -33c-62.667 0 -158 21.833 -286 65.5s-229.333 65.5 -304 65.5c-54.667 0 -111.334 -11.667 -170.001 -35s-130.334 -64 -215.001 -122v219c71.333 47.333 139.333 83 204 107s125.667 36 183 36c83.333 0 188.833 -21.833 316.5 -65.5
s218.834 -65.5 273.501 -65.5c56 0 113 11.667 171 35s126 62.333 204 117z" />
    <glyph glyph-name="notequal" unicode="&#x2260;" horiz-adv-x="1706" 
d="M1198 1233l148 -119l-154 -192h260v-191h-389l-191 -239h580v-193h-707l-245 -309l-148 119l154 190h-252v193h377l190 239h-567v191h696z" />
    <glyph glyph-name="lessequal" unicode="&#x2264;" horiz-adv-x="1706" 
d="M258 195h1192v-197h-1192v197zM1448 1241v-209l-834 -264l834 -262v-209l-1190 385v174z" />
    <glyph glyph-name="greaterequal" unicode="&#x2265;" horiz-adv-x="1706" 
d="M258 195h1192v-197h-1192v197zM260 1241l1188 -385v-174l-1188 -385v209l832 262l-832 264v209z" />
    <glyph glyph-name="lozenge" unicode="&#x25ca;" horiz-adv-x="1012" 
d="M506 1409l-385 -817l385 -825l385 825zM506 1653l500 -1061l-500 -1069l-500 1069z" />
    <glyph glyph-name="apple" unicode="&#xf000;" horiz-adv-x="1618" 
d="M836 1216c-0.666992 4 -1.16699 8.66895 -1.5 14.002s-0.5 13 -0.5 23c0 82.667 31.667 159.167 95 229.5s142 114.166 236 131.499c0.666992 -6.66699 1.16699 -14.334 1.5 -23.001s0.5 -21.667 0.5 -39c0 -87.333 -34.5 -165.5 -103.5 -234.5
s-136.833 -103.5 -203.5 -103.5h-8c-2 0 -4.5 0.333008 -7.5 1s-5.83301 1 -8.5 1zM1505 403.002c-76 -164.667 -144.336 -278.834 -205.003 -342.501s-128.667 -95.5 -204 -95.5c-33.333 0 -77.166 11 -131.499 33s-95.166 33 -122.499 33c-30 0 -73.667 -11 -131 -33
s-99.666 -33 -126.999 -33c-42.667 0 -85.5 14.667 -128.5 44s-86.167 73.333 -129.5 132c-68 93.333 -120.5 191.833 -157.5 295.5s-55.5 203.834 -55.5 300.501c0 146 41.667 264.833 125 356.5s191 137.5 323 137.5c45.333 0 97 -11.333 155 -34s99.333 -34 124 -34
c22.667 0 63.167 11.667 121.5 35s109.166 35 152.499 35c73.333 0 139.333 -13.333 198 -40s112.334 -68 161.001 -124c-68 -43.333 -118.5 -91.833 -151.5 -145.5s-49.5 -114.5 -49.5 -182.5c0 -75.333 20 -142 60 -200s97.667 -104 173 -138z" />
    <glyph glyph-name="fi" unicode="&#xf001;" horiz-adv-x="1022" 
d="M141 0l0.000976562 958h-104v199h104v115c0 99.333 19 169.833 57 211.5s101.667 62.5 191 62.5c18 0 37.667 -0.5 59 -1.5s44.666 -2.5 69.999 -4.5v-201c-3.33301 0 -8 0.333008 -14 1s-10 1 -12 1c-29.333 0 -50.333 -6 -63 -18s-19 -31.667 -19 -59v-107h108v-199
h-108v-958h-269zM647.001 1300v240h264v-240h-264zM647.001 0v1157h264v-1157h-264z" />
    <glyph glyph-name="fl" unicode="&#xf002;" horiz-adv-x="1022" 
d="M911 0h-264v1540h264v-1540zM141 0l0.000976562 958h-104v199h104v115c0 99.333 19 169.833 57 211.5s101.667 62.5 191 62.5c18 0 37.667 -0.5 59 -1.5s44.666 -2.5 69.999 -4.5v-201c-3.33301 0 -8 0.333008 -14 1s-10 1 -12 1c-29.333 0 -50.333 -6 -63 -18
s-19 -31.667 -19 -59v-107h108v-199h-108v-958h-269z" />
    <glyph glyph-name=".null" horiz-adv-x="0" 
 />
    <glyph glyph-name="nonmarkingreturn" horiz-adv-x="512" 
 />
    </font>
</defs>
</svg>
